<svg width="69" height="70" viewBox="0 0 69 70" fill="none" xmlns="http://www.w3.org/2000/svg">
<path d="M43.7139 61.3265L43.7129 61.3275C43.7123 61.3285 43.7111 61.3298 43.71 61.3314L43.709 61.3334L43.708 61.3324L43.707 61.3353L43.7061 61.3373C43.7044 61.3396 43.7022 61.3431 43.7002 61.3461L43.6973 61.35C43.6746 61.3908 43.6525 61.4322 43.6299 61.473C43.6074 61.5137 43.585 61.5545 43.5625 61.5951L43.5576 61.6039L43.5547 61.6136C43.5541 61.6165 43.5533 61.6195 43.5527 61.6224C43.4871 61.7193 43.4118 61.8228 43.3535 61.9252C42.5468 63.3405 41.6949 64.7454 40.6348 66.1078C40.192 66.6775 39.7212 67.2302 39.1426 67.7123C39.1286 67.724 39.1133 67.7335 39.0986 67.7445C39.432 64.9034 41.5862 61.5138 45.0488 59.3802C45.1913 61.2776 44.0756 64.365 40.5195 67.0131C41.6273 65.5711 42.4703 64.0893 43.252 62.599C43.384 62.3468 43.515 62.094 43.6387 61.8412C43.6576 61.8022 43.6664 61.7644 43.6719 61.7308C43.6759 61.7061 43.678 61.6881 43.6807 61.6703L43.6855 61.6635L43.6885 61.6595H43.6875L43.8271 61.4135L43.833 61.4027L43.835 61.389L43.8408 61.3422V61.3412L43.7295 61.3344L43.7139 61.3256V61.3265ZM43.7139 61.3265C43.7128 61.3288 43.7126 61.3312 43.7119 61.3334L43.7285 61.3344L43.7139 61.3265Z" fill="#F89460" stroke="#F89460" stroke-width="0.133333"/>
<path d="M48.6865 67.642L48.6182 67.7504C48.6233 67.752 48.6288 67.7532 48.6348 67.7533V67.7543L48.6279 67.7533H48.5996C48.5064 67.7491 48.4134 67.7448 48.3203 67.7406H48.3105L48.3008 67.7377C48.2986 67.7369 48.2962 67.7365 48.2939 67.7357C48.1768 67.7406 48.0478 67.7503 47.9297 67.7465C46.3012 67.6923 44.6584 67.6814 42.9424 67.8705C42.3154 67.9396 41.6881 68.0344 41.0625 68.2181L40.7949 68.3021L40.7441 68.3236C43.3394 69.5279 47.3546 69.4672 50.9854 67.6351C49.4437 66.5201 46.2302 65.8532 42.1123 67.4955C43.9202 67.3068 45.6242 67.3655 47.3027 67.4799L48.1504 67.5472C48.1935 67.5512 48.2303 67.5638 48.2617 67.5765C48.2855 67.5862 48.3022 67.5948 48.3193 67.6019C48.3216 67.6019 48.3239 67.601 48.3262 67.601V67.6L48.3311 67.601C48.4251 67.6041 48.5197 67.6065 48.6143 67.6107L48.626 67.6117L48.6377 67.6166C48.6424 67.6186 48.647 67.622 48.6523 67.6244C48.6655 67.6275 48.6758 67.6318 48.6816 67.6361C48.6841 67.6379 48.6853 67.6409 48.6865 67.642Z" fill="#F89460" stroke="#F89460" stroke-width="0.133333"/>
<path d="M49.8008 57.595V57.594L49.7998 57.5959C49.7993 57.5969 49.7996 57.5984 49.7988 57.5999L49.7969 57.6018H49.7959C49.7959 57.6031 49.795 57.6044 49.7949 57.6057V57.6067C49.7936 57.609 49.7916 57.6116 49.79 57.6145L49.7871 57.6194V57.6204C49.7516 57.703 49.7122 57.7946 49.6768 57.8772L49.6729 57.887L49.6719 57.8967C49.6716 57.8993 49.6711 57.9019 49.6709 57.9045C49.6152 58.0078 49.5509 58.1189 49.5029 58.2268C48.8419 59.716 48.1344 61.1991 47.2158 62.6614C46.8323 63.2714 46.4198 63.8678 45.8926 64.4055L45.8516 64.4426C45.8986 61.5822 47.7027 57.9942 50.9346 55.5247C51.2661 57.3982 50.4653 60.581 47.1924 63.5715C48.1502 62.0263 48.8403 60.4673 49.4688 58.9065C49.5751 58.6427 49.6806 58.3783 49.7783 58.1145C49.7934 58.0738 49.7977 58.0351 49.7998 58.0012C49.8013 57.9761 49.8018 57.9578 49.8027 57.9397L49.8066 57.9329L49.8086 57.929L49.9229 57.6702L49.9277 57.6575L49.9287 57.6448C49.929 57.6315 49.9294 57.6181 49.9297 57.6047C49.9294 57.6021 49.93 57.5997 49.9297 57.5979C49.9293 57.596 49.9289 57.594 49.9287 57.593V57.592C49.9289 57.5928 49.9285 57.5944 49.9287 57.5959L49.8193 57.6008L49.8018 57.594L49.8008 57.595ZM49.8008 57.595L49.8184 57.6008L49.7998 57.6018C49.8003 57.5997 49.8 57.5972 49.8008 57.595Z" fill="#F89460" stroke="#F89460" stroke-width="0.133333"/>
<path d="M47.3916 64.7377C50.0786 65.7202 54.0737 65.3246 57.5381 63.1957C55.9084 62.2133 52.6499 61.8186 48.6836 63.8002C50.4698 63.4602 52.1729 63.3761 53.8555 63.349C54.1398 63.3448 54.4245 63.3419 54.7061 63.3461C54.7492 63.3467 54.7868 63.3555 54.8193 63.3656C54.8431 63.373 54.8593 63.3796 54.876 63.3851C54.8791 63.3848 54.8826 63.3836 54.8857 63.3832H54.8906C54.9374 63.3811 54.9843 63.3787 55.0312 63.3763C55.0783 63.374 55.1256 63.3716 55.1729 63.3695L55.1875 63.3685L55.2012 63.3744C55.2111 63.3785 55.2215 63.3819 55.2344 63.3861L55.2334 63.3871C55.237 63.3888 55.2412 63.3878 55.2432 63.389C55.2448 63.39 55.2463 63.3914 55.2471 63.392C55.2479 63.3926 55.2476 63.3926 55.248 63.3929C55.2481 63.3929 55.246 63.3914 55.2432 63.39L55.1934 63.5092C55.1955 63.5094 55.1978 63.5101 55.2002 63.5101L55.1924 63.5121V63.5131C55.1911 63.5127 55.1898 63.5125 55.1885 63.5121C55.1865 63.5124 55.1843 63.5135 55.1816 63.514H55.1709C55.0776 63.5172 54.9844 63.5206 54.8916 63.5248H54.8809L54.8711 63.5228C54.8687 63.5222 54.8658 63.5216 54.8633 63.5209C54.7472 63.5359 54.6199 63.5561 54.502 63.5619C52.8747 63.6442 51.2369 63.7714 49.543 64.1039C48.9241 64.2258 48.307 64.3717 47.6992 64.6068L47.4395 64.7133L47.3916 64.7377Z" fill="#F89460" stroke="#F89460" stroke-width="0.133333"/>
<path d="M52.5479 59.4174C52.9297 58.8199 53.1952 58.1907 53.4307 57.5541C53.9947 56.0295 54.3601 54.5254 54.6816 53.0248C54.7049 52.9167 54.7432 52.8029 54.7744 52.6977C54.7741 52.695 54.7737 52.6924 54.7734 52.6899L54.7725 52.6791L54.7744 52.6694C54.7917 52.5835 54.8088 52.4974 54.8262 52.4116V52.4106L54.8281 52.4057C54.8329 52.3889 54.8342 52.3886 54.835 52.3842L54.8555 52.3881L54.96 52.3608L54.8965 52.3813L54.959 52.3618H54.96C54.9608 52.3637 54.9599 52.3673 54.9609 52.3705L54.9619 52.3696C54.9643 52.3827 54.9662 52.3929 54.9688 52.4067L54.9717 52.4203L54.9688 52.433C54.9505 52.5196 54.9322 52.6063 54.9141 52.6928L54.9121 52.6977L54.9102 52.7045C54.9128 52.7208 54.9156 52.7372 54.9189 52.7602C54.9236 52.7921 54.927 52.8295 54.9209 52.8705C54.8818 53.1327 54.836 53.3969 54.7891 53.6606C54.5128 55.213 54.1795 56.7754 53.6006 58.3764C56.0215 55.0005 56.1453 51.9255 55.4824 50.2661C52.987 53.1621 52.0186 56.809 52.5234 59.4516C52.5316 59.4401 52.5403 59.4293 52.5479 59.4174ZM54.8535 52.3881L54.834 52.3862C54.8337 52.3885 54.835 52.3909 54.835 52.393L54.8535 52.3881Z" fill="#F89460" stroke="#F89460" stroke-width="0.133333"/>
<path d="M59.5645 58.3818L59.584 58.2754L59.5879 58.2764L59.5859 58.2754C59.585 58.275 59.5835 58.2749 59.582 58.2744C59.58 58.2737 59.5765 58.2751 59.5732 58.2744L59.5742 58.2734C59.5615 58.2721 59.5486 58.2708 59.5361 58.2695L59.5234 58.2686L59.5107 58.2725C59.4259 58.2977 59.3408 58.3224 59.2559 58.3477L59.251 58.3496L59.2451 58.3525C59.2286 58.3512 59.212 58.3492 59.1885 58.3477C59.1563 58.3456 59.1186 58.346 59.0781 58.3555C58.8201 58.4159 58.5607 58.4824 58.3018 58.5508C56.7778 58.9529 55.248 59.4126 53.7002 60.1201C56.8662 57.4324 59.9201 57.0581 61.6279 57.583C58.9455 60.3068 55.3898 61.5704 52.7148 61.2832C52.7256 61.2741 52.7358 61.2645 52.7471 61.2559C53.3114 60.8264 53.9171 60.5105 54.5322 60.2236C56.0056 59.5368 57.4742 59.0495 58.9434 58.6064C59.05 58.5742 59.1618 58.5273 59.2646 58.4873H59.2803L59.29 58.4844L59.5439 58.4111L59.5488 58.4102L59.5576 58.4062H59.5605L59.5684 58.4023H59.5693L59.5703 58.4014M59.5645 58.3818L59.5703 58.4014M59.5645 58.3818L59.5703 58.4014M59.5645 58.3818L59.5615 58.4014C59.5643 58.4011 59.5673 58.4021 59.5703 58.4014" fill="#F89460" stroke="#F89460" stroke-width="0.133333"/>
<path d="M57.6846 54.3659C57.8889 53.7137 57.9766 53.0616 58.0352 52.4099C58.1751 50.8487 58.1354 49.3571 58.0557 47.8796C58.0499 47.7729 58.0561 47.6562 58.0586 47.5505C58.0577 47.5483 58.0574 47.5458 58.0566 47.5436L58.0527 47.5349V47.5251C58.0499 47.4828 58.0467 47.4395 58.0439 47.3972C58.0412 47.3551 58.0379 47.3132 58.0352 47.2712V47.2565C58.0353 47.2537 58.0361 47.2517 58.0361 47.2497C58.0362 47.2471 58.0362 47.2454 58.0361 47.2448C58.0365 47.2478 58.0384 47.2501 58.0391 47.2526L58.0557 47.2429L58.0576 47.2419L58.1504 47.1891C58.1489 47.1869 58.1474 47.1852 58.1475 47.1852H58.1484L58.1494 47.1862C58.15 47.187 58.1503 47.1887 58.1514 47.1901C58.1526 47.1918 58.1525 47.1951 58.1543 47.1979L58.1553 47.197C58.1604 47.2077 58.1656 47.2184 58.1709 47.2292L58.1768 47.2419L58.1777 47.2546C58.1802 47.2971 58.1821 47.3399 58.1846 47.3825L58.1924 47.5114V47.5163C58.1924 47.5186 58.1914 47.5209 58.1914 47.5231C58.1978 47.5371 58.2052 47.551 58.2139 47.571C58.2263 47.5995 58.2394 47.6335 58.2441 47.6735C58.2739 47.9276 58.2983 48.1856 58.3213 48.4431C58.4557 49.9524 58.5397 51.4857 58.4072 53.1159C59.799 49.3733 59.1392 46.4883 58.1064 45.113C56.5185 48.4348 56.5377 52.0684 57.6719 54.3991C57.6759 54.3881 57.681 54.3772 57.6846 54.3659Z" fill="#F89460" stroke="#F89460" stroke-width="0.133333"/>
<path d="M63.8398 52.2462L63.8408 52.2452L63.8311 52.2257L63.8291 52.1193V52.1183L63.8281 52.1193V52.1183C63.8262 52.118 63.8232 52.1204 63.8203 52.1202V52.1193C63.8082 52.1203 63.7957 52.121 63.7832 52.1222L63.7705 52.1232L63.7588 52.129C63.7208 52.1487 63.6825 52.1689 63.6445 52.1886C63.6068 52.2082 63.569 52.2276 63.5312 52.2472L63.5264 52.2501C63.525 52.251 63.5238 52.2522 63.5225 52.2531C63.5067 52.2548 63.4903 52.2561 63.4678 52.2589C63.437 52.2628 63.4019 52.27 63.3652 52.2863C63.1316 52.3903 62.8971 52.5006 62.6641 52.6124C61.2975 53.2678 59.9366 53.9791 58.6025 54.9259C61.1093 51.8178 63.9262 50.9115 65.6367 51.0968C63.5914 54.1584 60.4579 55.9978 57.875 56.213C57.8824 56.2041 57.8887 56.1944 57.8965 56.1857C58.3529 55.6766 58.8697 55.2682 59.4004 54.8849C60.6713 53.9671 61.974 53.239 63.2852 52.5529C63.38 52.5032 63.4767 52.4381 63.5664 52.382L63.5723 52.381L63.582 52.379L63.5908 52.3751C63.6663 52.3367 63.742 52.2981 63.8174 52.2599L63.8232 52.257H63.8223C63.8245 52.2556 63.8272 52.2543 63.8291 52.2531L63.832 52.2521L63.8311 52.2511C63.8328 52.25 63.8345 52.249 63.8359 52.2482C63.8374 52.2472 63.839 52.2467 63.8398 52.2462ZM63.8398 52.2462L63.8311 52.2277V52.2482C63.8338 52.2475 63.8369 52.2475 63.8398 52.2462Z" fill="#F89460" stroke="#F89460" stroke-width="0.133333"/>
<path d="M61.3477 48.7214C61.4106 48.067 61.3634 47.4354 61.2891 46.8102C61.111 45.3133 60.7782 43.9175 60.4102 42.5427C60.3835 42.4431 60.3654 42.3322 60.3467 42.2321C60.3459 42.2309 60.3455 42.2294 60.3447 42.2282L60.3398 42.2194L60.3369 42.2097C60.3149 42.1313 60.2926 42.0527 60.2705 41.9743L60.2695 41.9684C60.269 41.9656 60.268 41.9629 60.2676 41.9606C60.2671 41.958 60.2669 41.9557 60.2666 41.9538C60.266 41.9503 60.2656 41.9489 60.2656 41.9489L60.2871 41.9421L60.3662 41.8718L60.3643 41.8698C60.3651 41.8704 60.3667 41.8715 60.3682 41.8727C60.3698 41.8741 60.3707 41.8772 60.373 41.8796C60.3799 41.8886 60.3873 41.8976 60.3945 41.9069L60.4023 41.9167L60.4062 41.9304L60.4707 42.1686L60.4717 42.1725C60.472 42.1744 60.4723 42.1766 60.4727 42.1784C60.4814 42.1902 60.4906 42.2021 60.5029 42.2194C60.5204 42.244 60.5393 42.274 60.5518 42.3112C60.6303 42.5442 60.7037 42.7817 60.7764 43.0192C61.2005 44.4071 61.5827 45.8276 61.7822 47.3806C62.3419 43.5967 61.1539 41.0217 59.9131 39.9333C59.0798 43.3699 59.8168 46.7808 61.3428 48.7487C61.344 48.7396 61.3468 48.7306 61.3477 48.7214ZM60.2861 41.9431L60.2656 41.9499C60.2666 41.9528 60.2683 41.9553 60.2695 41.9577L60.2861 41.9431Z" fill="#F89460" stroke="#F89460" stroke-width="0.133333"/>
<path d="M62.2236 49.9646C64.592 49.1946 67.1179 46.7869 68.3594 43.4753C66.7216 43.6791 64.2917 45.1423 62.6289 48.5876C63.6669 47.4142 64.781 46.4531 65.9121 45.5427C66.106 45.3869 66.3006 45.2325 66.4961 45.0837V45.0828C66.5274 45.0592 66.5597 45.0454 66.5879 45.0349C66.6075 45.0276 66.6221 45.0232 66.6357 45.0183L66.6436 45.0105C66.7059 44.957 66.7687 44.9038 66.8311 44.8503L66.8408 44.8416L66.8535 44.8367L66.8857 44.8269C66.8892 44.8262 66.892 44.8242 66.8945 44.824H66.8965L66.9219 44.9246L66.9385 44.9431C66.936 44.9453 66.9328 44.9486 66.9287 44.9529H66.9297L66.9277 44.9539C66.9266 44.9551 66.9251 44.9564 66.9238 44.9578L66.918 44.9626L66.7305 45.1208L66.7227 45.1267L66.7139 45.1306L66.71 45.1326L66.4834 45.3552L65.6797 46.0623C64.8811 46.7802 64.0996 47.5376 63.3584 48.3914C62.9973 48.8073 62.6506 49.2387 62.3584 49.7263L62.2363 49.9392L62.2236 49.9646ZM66.9326 44.948L66.9258 44.9382L66.9287 44.95C66.9299 44.9493 66.9314 44.9488 66.9326 44.948Z" fill="#F89460" stroke="#F89460" stroke-width="0.133333"/>
<path d="M61.0498 35.9446L60.9873 36.0276L60.9648 36.0403C60.9647 36.0401 60.9655 36.0409 60.9668 36.0443C60.9674 36.0459 60.9678 36.0478 60.9688 36.0501C60.9696 36.0522 60.9705 36.0552 60.9717 36.0579L60.9736 36.0628C61.0086 36.1305 61.044 36.1982 61.0791 36.2659L61.084 36.2747L61.0908 36.2816C61.0916 36.2824 61.092 36.2837 61.0928 36.2845C61.1286 36.3723 61.1657 36.4708 61.209 36.5569C61.8056 37.747 62.3739 38.9625 62.8193 40.3001C63.0054 40.8586 63.1677 41.4275 63.2334 42.0384C63.234 42.0436 63.233 42.0489 63.2334 42.054C61.4711 40.5398 60.1572 37.5642 60.2686 34.2689C61.6034 35.0321 63.1672 37.1502 63.376 40.6946C62.9015 39.3222 62.2882 38.1026 61.6426 36.9202C61.5312 36.7162 61.4186 36.5125 61.3027 36.3138C61.2839 36.2816 61.261 36.2569 61.2402 36.2376C61.2258 36.2241 61.215 36.2153 61.2051 36.2064C61.2046 36.2052 61.2046 36.2037 61.2041 36.2025L61.2021 36.1985C61.166 36.1271 61.1338 36.064 61.0977 35.9925L61.0918 35.9808L61.0811 35.972C61.077 35.9685 61.0733 35.9647 61.0693 35.9612C61.0652 35.9577 61.0608 35.954 61.0566 35.9505L61.0557 35.9515C61.0528 35.9496 61.0516 35.9456 61.0498 35.9446ZM61.0498 35.9446C61.0473 35.943 61.0449 35.9427 61.0449 35.9427H61.0469C61.0476 35.943 61.0485 35.944 61.0498 35.9446ZM60.9863 36.0286L60.9648 36.0413C60.9666 36.0443 60.9698 36.0459 60.9717 36.0482L60.9863 36.0286Z" fill="#F89460" stroke="#F89460" stroke-width="0.133333"/>
<path d="M67.3193 37.9696C67.317 37.9706 67.3147 37.9727 67.3115 37.9745V37.9735L67.2764 37.9969L67.2686 38.0077C67.2224 38.0747 67.1842 38.1321 67.1387 38.1981L67.1357 38.202L67.1377 38.204H67.1367L67.1357 38.203C67.135 38.2043 67.1345 38.2057 67.1338 38.2069C67.1228 38.2144 67.1108 38.2219 67.0947 38.2333C67.0716 38.2497 67.0453 38.2704 67.0225 38.2997C66.8812 38.4814 66.743 38.6689 66.6055 38.8563C65.8091 39.9438 65.0387 41.0722 64.3867 42.371C65.0615 38.8842 66.8926 36.9898 68.3164 36.4091C67.9912 39.6908 66.2974 42.4674 64.3496 43.7352C64.3508 43.7299 64.3512 43.724 64.3525 43.7186C64.4984 43.122 64.734 42.5796 64.9922 42.0507C65.6109 40.7836 66.3353 39.6542 67.084 38.5536C67.1375 38.4741 67.1869 38.38 67.2344 38.2977L67.2373 38.2958L67.2451 38.2899L67.251 38.2811C67.2933 38.2191 67.3371 38.1572 67.3809 38.0946L67.3818 38.0936C67.3841 38.0903 67.3859 38.0868 67.3877 38.0839L67.3896 38.0819H67.3887C67.3897 38.0801 67.3908 38.0784 67.3916 38.077C67.3943 38.0723 67.3955 38.0707 67.3965 38.0692L67.3721 38.0546L67.3193 37.9696ZM67.3193 37.9696L67.3213 37.9677C67.3225 37.9672 67.3243 37.967 67.3252 37.9667H67.3232C67.3223 37.9671 67.3209 37.9678 67.3193 37.9686V37.9696ZM67.3877 38.08L67.3896 38.078L67.3809 38.0712L67.3877 38.08Z" fill="#F89460" stroke="#F89460" stroke-width="0.133333"/>
<path d="M63.4131 35.2631C63.2573 34.7232 63.0216 34.2362 62.7656 33.7621C62.1525 32.6267 61.4478 31.6207 60.7217 30.642C60.6693 30.5714 60.62 30.4884 60.5742 30.4154L60.5723 30.4135L60.5645 30.4076L60.5586 30.3998C60.5162 30.3442 60.4739 30.2884 60.4316 30.2328H60.4307L60.4287 30.2289C60.4271 30.2264 60.425 30.2239 60.4238 30.222C60.4226 30.22 60.4218 30.2185 60.4209 30.2172C60.4193 30.2146 60.4195 30.2137 60.4199 30.2142L60.4414 30.1967L60.4863 30.1058C60.4838 30.1048 60.4814 30.1049 60.4814 30.1049H60.4834C60.4843 30.1051 60.4857 30.1053 60.4873 30.1058C60.4894 30.1065 60.4917 30.1092 60.4951 30.1107C60.5037 30.1158 60.5128 30.1212 60.5215 30.1263L60.5322 30.1322L60.54 30.1429C60.5824 30.1995 60.6248 30.2564 60.667 30.3129L60.6699 30.3168L60.6709 30.3187C60.6808 30.3249 60.6911 30.3315 60.7061 30.3412C60.728 30.3555 60.7538 30.374 60.7764 30.4008C60.9123 30.5617 61.046 30.7276 61.1787 30.8939C61.9403 31.8486 62.6786 32.8415 63.3193 33.9896C62.5674 30.8602 60.8391 29.2106 59.5234 28.7318C59.9452 31.7099 61.5921 34.1759 63.4131 35.264V35.2631ZM60.4404 30.1996L60.4209 30.2162C60.4232 30.2188 60.4264 30.2201 60.4287 30.222L60.4404 30.1996Z" fill="#F89460" stroke="#F89460" stroke-width="0.133333"/>
<path d="M62.6416 29.0518C62.3655 28.5623 62.0236 28.1426 61.665 27.7403C60.8065 26.7771 59.8884 25.9615 58.9561 25.1768C58.8887 25.1202 58.8212 25.0508 58.7598 24.9903L58.7578 24.9883L58.749 24.9844L58.7412 24.9786L58.5791 24.8458L58.5635 24.8301L58.5801 24.8077L58.6045 24.709L58.6123 24.713L58.6133 24.712C58.618 24.7135 58.6232 24.7144 58.6279 24.7159L58.6543 24.7247L58.665 24.7335L58.8271 24.8682L58.8301 24.8721V24.8731C58.8418 24.8771 58.8541 24.8803 58.8721 24.8868C58.8967 24.8956 58.9251 24.9081 58.9531 24.9288C59.1227 25.054 59.2915 25.1842 59.459 25.3155V25.3165C60.4196 26.0691 61.3671 26.8638 62.2549 27.8321C60.8009 24.9616 58.7389 23.7557 57.3486 23.5938C58.4461 26.3946 60.6185 28.4141 62.6416 29.0528V29.0518ZM58.5801 24.8096L58.5645 24.8311C58.5675 24.8334 58.5713 24.8336 58.5742 24.835L58.5801 24.8096Z" fill="#F89460" stroke="#F89460" stroke-width="0.133333"/>
<path d="M64.7344 23.5061C64.733 23.5075 64.7322 23.5099 64.7305 23.512L64.7295 23.511C64.724 23.5192 64.7185 23.5279 64.7129 23.5364L64.7061 23.5471L64.7031 23.5598C64.6891 23.6289 64.6751 23.6986 64.6611 23.7678L64.6602 23.7717L64.6592 23.7747C64.6529 23.7843 64.6469 23.7949 64.6377 23.8098C64.6239 23.8321 64.6086 23.86 64.5996 23.8938C64.5456 24.0972 64.4951 24.304 64.4463 24.511C64.1658 25.6995 63.9217 26.913 63.833 28.2249C63.1757 25.0752 64.034 22.8454 65.0186 21.8499C65.9096 24.723 65.4756 27.6564 64.2939 29.4182V29.4163C64.2041 28.8617 64.2084 28.3204 64.2373 27.7825C64.3064 26.4939 64.5146 25.2834 64.7529 24.0881C64.77 24.0024 64.7769 23.9068 64.7871 23.8215L64.79 23.8176L64.7949 23.8088L64.7969 23.7991L64.8398 23.594L64.8408 23.5891C64.8412 23.5863 64.8416 23.5834 64.8418 23.5813C64.842 23.5792 64.8426 23.5778 64.8428 23.5764V23.5725M64.7344 23.5061V23.5051M64.7344 23.5061L64.7354 23.5042C64.737 23.5026 64.7398 23.4998 64.7393 23.5002C64.7392 23.5003 64.7381 23.5005 64.7373 23.5012C64.7365 23.502 64.7357 23.5036 64.7344 23.5051M64.7344 23.5061V23.5051M64.7344 23.5051L64.8145 23.5667L64.8428 23.5725M64.8428 23.5725L64.8418 23.5735C64.8408 23.5774 64.8384 23.5802 64.8369 23.5833L64.8154 23.5676L64.8428 23.5725Z" fill="#F89460" stroke="#F89460" stroke-width="0.133333"/>
<path d="M64.9541 36.4355C66.4934 34.9756 67.5608 32.2085 67.3213 29.2099C66.1417 29.9649 64.8154 31.9524 64.7656 35.1699C65.1398 33.9095 65.6447 32.7796 66.1797 31.6816L66.4639 31.1122C66.4801 31.0815 66.5003 31.0577 66.5186 31.039C66.5311 31.0262 66.5404 31.018 66.5488 31.0097L66.5498 31.0068L66.5518 31.0038C66.5801 30.939 66.6095 30.8738 66.6387 30.8095L66.6436 30.7978L66.6533 30.789C66.6606 30.7821 66.6676 30.7753 66.6748 30.7685C66.6789 30.7654 66.6814 30.7619 66.6836 30.7607L66.7451 30.8388L66.7725 30.8505C66.7725 30.8505 66.7717 30.8519 66.7705 30.8554C66.7695 30.8584 66.7672 30.8649 66.7646 30.871L66.7637 30.873L66.7197 30.9687C66.7052 31.0004 66.6913 31.0327 66.6768 31.0644L66.6719 31.0732L66.666 31.08L66.6641 31.082C66.6349 31.1634 66.6056 31.2556 66.5703 31.3359C66.0758 32.4496 65.6076 33.5851 65.2578 34.8271C65.1117 35.3458 64.988 35.8734 64.9541 36.4345V36.4355ZM66.7695 30.8564L66.751 30.8466L66.7637 30.8622C66.7652 30.8603 66.7682 30.8587 66.7695 30.8564Z" fill="#F89460" stroke="#F89460" stroke-width="0.133333"/>
<path d="M55.7139 19.9224C55.715 19.9231 55.716 19.9242 55.7178 19.9253C55.7194 19.9263 55.7214 19.9278 55.7236 19.9292L55.7285 19.9321L55.7295 19.9312C55.7872 19.9605 55.8446 19.9907 55.9023 20.02L55.9111 20.0239L55.9209 20.0259L55.9229 20.0269C55.9902 20.0692 56.0647 20.118 56.1367 20.1558C57.1393 20.6803 58.1344 21.2369 59.1055 21.938C59.5069 22.2279 59.8957 22.5369 60.2412 22.9194C58.2863 22.7399 55.9262 21.3507 54.375 19.0435C55.6618 18.9168 57.7545 19.5921 59.6367 21.8755C58.6463 21.1847 57.6374 20.6587 56.625 20.1733C56.4468 20.0878 56.2677 20.0029 56.0889 19.9233C56.0588 19.91 56.0301 19.9049 56.0059 19.9019C55.9895 19.8998 55.9781 19.899 55.9678 19.8979L55.9668 19.897L55.9629 19.894C55.9049 19.864 55.8469 19.8343 55.7891 19.8042L55.7764 19.7974L55.7627 19.7964C55.7541 19.7957 55.7454 19.7953 55.7363 19.7944L55.7354 19.7964C55.7316 19.7965 55.7287 19.7951 55.7266 19.7954L55.7236 19.895L55.7119 19.9214C55.7122 19.9216 55.7129 19.9218 55.7139 19.9224ZM55.7139 19.9224L55.7236 19.8979V19.9243C55.7207 19.9236 55.7171 19.9237 55.7139 19.9224Z" fill="#F89460" stroke="#F89460" stroke-width="0.133333"/>
<path d="M61.9873 23.3535C62.8044 21.5681 62.7736 18.8297 61.543 16.3359C60.7933 17.3892 60.3377 19.5409 61.3818 22.3085C61.2753 21.1061 61.3229 19.969 61.4053 18.8495C61.4198 18.6526 61.4352 18.4553 61.4551 18.2607C61.4584 18.2278 61.4681 18.2003 61.4775 18.1777C61.4835 18.1634 61.4882 18.1535 61.4922 18.1445V18.1367C61.495 18.0713 61.4983 18.0058 61.501 17.9404V17.9267L61.5068 17.915L61.5186 17.8896L61.5195 17.8906C61.521 17.8881 61.5212 17.8854 61.5225 17.8837L61.6084 17.9306L61.6406 17.9326V17.9462H61.6416L61.6406 17.9521C61.6373 18.0168 61.6341 18.0818 61.6309 18.1464V18.1562L61.627 18.166C61.6301 18.246 61.6359 18.336 61.6328 18.4179C61.5892 19.5485 61.5769 20.6888 61.7021 21.8798C61.754 22.3722 61.8273 22.8636 61.9873 23.3535ZM61.5264 17.8769L61.5254 17.8788C61.5249 17.8795 61.5243 17.8805 61.5234 17.8818L61.5264 17.8769ZM61.6406 17.9335L61.6104 17.9306L61.6357 17.9453C61.6369 17.9418 61.6401 17.938 61.6406 17.9335Z" fill="#F89460" stroke="#F89460" stroke-width="0.133333"/>
<path d="M59.0176 18.7271C58.7801 18.2699 58.4829 17.8724 58.168 17.4907C57.4056 16.5669 56.5825 15.7771 55.7451 15.0161C55.6845 14.961 55.6242 14.8946 55.5693 14.8364L55.5605 14.8315L55.5527 14.8257C55.5042 14.7827 55.4557 14.7398 55.4072 14.6968L55.4043 14.6929L55.3936 14.6821L55.4121 14.6587L55.4404 14.563C55.4387 14.5626 55.4374 14.5621 55.4365 14.562H55.4404C55.4423 14.5623 55.4443 14.5652 55.4473 14.5659L55.4482 14.5649C55.4526 14.5665 55.4575 14.5683 55.4619 14.5698C55.4662 14.5714 55.4703 14.5732 55.4746 14.5747L55.4873 14.5786L55.4971 14.5874C55.5457 14.6312 55.5941 14.6755 55.6426 14.7192L55.6455 14.7231C55.6557 14.727 55.6666 14.7304 55.6826 14.7368C55.7054 14.7459 55.732 14.7591 55.7578 14.7798C55.9107 14.902 56.0621 15.0291 56.2129 15.1567C57.0695 15.882 57.9128 16.6456 58.6963 17.564C57.4523 14.8799 55.5992 13.6974 54.3223 13.4946C55.24 16.1187 57.1716 18.0591 59.0176 18.7271ZM55.4121 14.6606L55.3945 14.6831H55.3955V14.6841C55.3982 14.6861 55.4017 14.6866 55.4043 14.688L55.4121 14.6606Z" fill="#F89460" stroke="#F89460" stroke-width="0.133333"/>
<path d="M24.7451 61.3265L24.7285 61.3344L24.6182 61.3412C24.6182 61.3389 24.6191 61.337 24.6191 61.3363C24.619 61.3372 24.6184 61.3358 24.6182 61.3373C24.618 61.3382 24.6183 61.3403 24.6182 61.3422L24.624 61.389L24.626 61.4017L24.6318 61.4135C24.655 61.4544 24.6789 61.4955 24.7021 61.5365C24.7253 61.5775 24.7483 61.6186 24.7715 61.6595L24.7734 61.6644C24.7747 61.6664 24.776 61.6683 24.7773 61.6703C24.78 61.6882 24.7831 61.7061 24.7871 61.7308C24.7926 61.7643 24.8013 61.8022 24.8203 61.8412C24.944 62.0939 25.0749 62.3468 25.207 62.599C25.9885 64.0891 26.8309 65.5713 27.9385 67.0131C24.383 64.3652 23.2668 61.2775 23.4092 59.3802C26.8723 61.5137 29.0259 64.9032 29.3594 67.7445C29.3449 67.7337 29.3302 67.7238 29.3164 67.7123V67.7113C28.7378 67.2292 28.2669 66.6774 27.8242 66.1078C26.764 64.7455 25.9122 63.3405 25.1055 61.9252C25.047 61.8227 24.971 61.7195 24.9053 61.6224C24.9047 61.6196 24.9049 61.6164 24.9043 61.6136L24.9023 61.6039L24.8975 61.5951C24.8749 61.5543 24.8517 61.5138 24.8291 61.473C24.8065 61.4322 24.7843 61.3908 24.7617 61.35L24.7588 61.3461L24.7529 61.3373L24.751 61.3353V61.3324L24.749 61.3334V61.3314C24.7479 61.3297 24.7467 61.3285 24.7461 61.3275L24.7451 61.3265ZM24.7451 61.3265C24.7462 61.3287 24.7454 61.3313 24.7461 61.3334L24.7295 61.3344L24.7451 61.3265Z" fill="#F89460" stroke="#F89460" stroke-width="0.133333"/>
<path d="M17.4756 67.6351C21.1064 69.4675 25.1214 69.5268 27.7168 68.3226L27.667 68.3021C26.9527 68.0616 26.2361 67.9495 25.5195 67.8705C24.2324 67.7286 22.9864 67.6993 21.7568 67.7162L20.5322 67.7465C20.4137 67.7503 20.2844 67.7406 20.167 67.7357C20.165 67.7364 20.163 67.737 20.1611 67.7377L20.1514 67.7406H20.1416C20.0484 67.7448 19.9554 67.7491 19.8623 67.7533H19.8262C19.828 67.7533 19.8302 67.7525 19.832 67.7523L19.8301 67.7318L19.8262 67.725L19.7734 67.642C19.7742 67.6413 19.7768 67.6387 19.7803 67.6361C19.786 67.6319 19.796 67.6275 19.8086 67.6244C19.8143 67.6219 19.8193 67.6187 19.8242 67.6166L19.8359 67.6117L19.8477 67.6107C19.9422 67.6065 20.0369 67.6041 20.1309 67.601V67.6L20.1357 67.601C20.1377 67.601 20.1396 67.6019 20.1416 67.6019C20.159 67.5947 20.176 67.5864 20.2002 67.5765C20.2157 67.5702 20.2327 67.5641 20.251 67.559L20.3115 67.5472C20.5917 67.5201 20.8754 67.4997 21.1592 67.4799C22.8375 67.3656 24.541 67.3069 26.3486 67.4955C22.2307 65.8534 19.0169 66.5199 17.4756 67.6351ZM19.8428 67.7504L19.832 67.7338L19.833 67.7523C19.8365 67.7519 19.8397 67.7513 19.8428 67.7504Z" fill="#F89460" stroke="#F89460" stroke-width="0.133333"/>
<path d="M22.6104 64.4426C22.5632 61.582 20.7596 57.9942 17.5273 55.5247C17.196 57.3981 17.9972 60.5812 21.2695 63.5715C20.3119 62.0265 19.6226 60.4671 18.9941 58.9065L18.6846 58.1145C18.6696 58.0738 18.6652 58.0351 18.6631 58.0012C18.6615 57.9761 18.6601 57.9578 18.6592 57.9397C18.658 57.9375 18.6574 57.935 18.6562 57.9329L18.6543 57.929C18.6164 57.8427 18.578 57.7564 18.54 57.6702L18.5352 57.6575L18.5342 57.6448C18.5339 57.6315 18.5335 57.6181 18.5332 57.6047C18.5335 57.6018 18.5328 57.5989 18.5332 57.5969C18.5335 57.5953 18.534 57.594 18.5342 57.593L18.5352 57.5911L18.5342 57.5959L18.6416 57.6008H18.6426L18.6621 57.6018C18.6616 57.5993 18.6621 57.5966 18.6611 57.594L18.6621 57.595C18.6626 57.596 18.6631 57.598 18.6641 57.5999L18.665 57.6018H18.667C18.667 57.6031 18.667 57.6044 18.667 57.6057L18.668 57.6067L18.6729 57.6145L18.6748 57.6204C18.6931 57.6631 18.7121 57.7055 18.7305 57.7483C18.7489 57.7912 18.7677 57.8342 18.7861 57.8772L18.79 57.887L18.791 57.8967C18.7913 57.8993 18.7908 57.9019 18.791 57.9045C18.8468 58.0079 18.912 58.1187 18.96 58.2268C19.621 59.716 20.3285 61.1992 21.2471 62.6614C21.5827 63.1952 21.9404 63.7187 22.3779 64.2014L22.5703 64.4055C22.5831 64.4185 22.5968 64.4303 22.6104 64.4426Z" fill="#F89460" stroke="#F89460" stroke-width="0.133333"/>
<path d="M13.2158 63.392C13.2166 63.3915 13.2181 63.3908 13.2197 63.39L13.2676 63.5092L13.2617 63.5101L13.2686 63.5121L13.2695 63.5131C13.2705 63.5127 13.2715 63.5124 13.2725 63.5121C13.2748 63.5125 13.2779 63.5124 13.2812 63.5131L13.292 63.515L13.5713 63.5248H13.5811L13.5918 63.5228C13.594 63.5222 13.5963 63.5215 13.5986 63.5209C13.7149 63.5359 13.8419 63.5561 13.96 63.5619L15.1826 63.6351C16.4093 63.7211 17.6483 63.8545 18.9189 64.1039C19.6265 64.2432 20.3318 64.4139 21.0234 64.7133C21.0397 64.7202 21.0544 64.7298 21.0703 64.7377C18.3831 65.7201 14.3874 65.325 10.9229 63.1957C12.5525 62.2128 15.8121 61.8179 19.7793 63.8002C17.9931 63.4601 16.2901 63.3761 14.6074 63.349C14.323 63.3448 14.0374 63.3419 13.7559 63.3461C13.7128 63.3468 13.6751 63.3555 13.6426 63.3656C13.6187 63.373 13.6026 63.3796 13.5859 63.3851C13.583 63.3848 13.5801 63.3835 13.5771 63.3832H13.5723L13.2891 63.3695L13.2744 63.3685L13.2607 63.3744C13.2508 63.3785 13.2404 63.3819 13.2275 63.3861V63.3871C13.2247 63.3885 13.2214 63.388 13.2197 63.389C13.2187 63.3897 13.2169 63.3912 13.2158 63.392ZM13.2158 63.392C13.2148 63.3927 13.2143 63.3933 13.2148 63.3929V63.392H13.2158Z" fill="#F89460" stroke="#F89460" stroke-width="0.133333"/>
<path d="M15.9395 59.4526C16.4448 56.8097 15.4764 53.1626 12.9805 50.2661C12.3177 51.9254 12.441 55.001 14.8613 58.3764C14.2824 56.7756 13.9501 55.2129 13.6738 53.6606C13.6268 53.3968 13.5811 53.1328 13.542 52.8705C13.5359 52.8294 13.5393 52.7921 13.5439 52.7602C13.5472 52.7377 13.5501 52.7214 13.5527 52.7055L13.5498 52.6938C13.5315 52.6071 13.5133 52.5198 13.4951 52.433L13.4922 52.4194L13.4951 52.4067L13.502 52.3696C13.5028 52.367 13.5022 52.3644 13.5029 52.3627L13.5039 52.3618L13.6074 52.3881L13.6289 52.3842C13.6289 52.3842 13.6296 52.386 13.6309 52.3901C13.6312 52.3913 13.6314 52.3926 13.6318 52.394H13.6328L13.6318 52.3959L13.6328 52.3969L13.6357 52.4057L13.6367 52.4116C13.654 52.4974 13.6711 52.5835 13.6885 52.6694L13.6904 52.6791L13.6895 52.6899C13.6893 52.6915 13.6887 52.6931 13.6885 52.6948C13.7198 52.8006 13.7588 52.9158 13.7822 53.0248C14.1037 54.5253 14.469 56.0295 15.0332 57.5541C15.2687 58.1906 15.5331 58.82 15.915 59.4174C15.9227 59.4295 15.9312 59.4409 15.9395 59.4526ZM13.5049 52.3569C13.5046 52.3574 13.5056 52.3574 13.5049 52.3588L13.5039 52.3608C13.5046 52.3588 13.5047 52.3572 13.5049 52.3569ZM13.6289 52.3852L13.6084 52.3881L13.6279 52.393C13.6279 52.3906 13.6293 52.3879 13.6289 52.3852Z" fill="#F89460" stroke="#F89460" stroke-width="0.133333"/>
<path d="M8.89258 58.4014H8.8916L8.89258 58.4023C8.89258 58.4023 8.89402 58.402 8.89746 58.4033C8.89833 58.4037 8.89945 58.4049 8.90039 58.4053L8.90137 58.4062H8.9043C8.90673 58.4072 8.90992 58.409 8.91309 58.4102L8.91797 58.4121C9.00248 58.4365 9.08736 58.46 9.17188 58.4844L9.18164 58.4873H9.19629C9.29946 58.5273 9.41152 58.5741 9.51855 58.6064C10.9876 59.0495 12.4563 59.5367 13.9297 60.2236C14.5449 60.5105 15.1505 60.8264 15.7148 61.2559C15.7259 61.2643 15.7355 61.2743 15.7461 61.2832C13.071 61.57 9.51508 60.3068 6.83301 57.583C8.54043 57.0576 11.5943 57.4323 14.7607 60.1201C13.2132 59.4128 11.6839 58.9529 10.1602 58.5508C9.90121 58.4824 9.64183 58.4159 9.38379 58.3555C9.34333 58.346 9.30565 58.3456 9.27344 58.3477C9.24951 58.3492 9.23271 58.3513 9.21582 58.3525C9.21412 58.3519 9.21264 58.3503 9.21094 58.3496L9.20703 58.3477C9.11876 58.3214 9.03941 58.2987 8.95117 58.2725L8.93848 58.2686L8.92578 58.2695C8.91343 58.2708 8.90054 58.2721 8.8877 58.2734V58.2744C8.88516 58.275 8.88259 58.2739 8.88086 58.2744C8.87904 58.275 8.87697 58.275 8.87598 58.2754L8.875 58.2764L8.87793 58.2754L8.89648 58.3838M8.89258 58.4014L8.89648 58.3838M8.89258 58.4014L8.89648 58.3838M8.89258 58.4014C8.89528 58.402 8.89793 58.4011 8.90039 58.4014L8.89648 58.3838" fill="#F89460" stroke="#F89460" stroke-width="0.133333"/>
<path d="M10.0518 53.113C9.91951 51.4839 10.0053 49.9515 10.1396 48.4431C10.1626 48.1856 10.1869 47.9276 10.2168 47.6735C10.2215 47.6335 10.2337 47.5995 10.2461 47.571C10.2551 47.5502 10.262 47.5357 10.2686 47.5212C10.2685 47.5196 10.2686 47.5179 10.2686 47.5163H10.2676L10.2686 47.5114C10.271 47.4687 10.2729 47.4252 10.2754 47.3825C10.2778 47.3399 10.2808 47.2971 10.2832 47.2546V47.2419L10.2891 47.2292L10.3057 47.197C10.3073 47.1945 10.3074 47.1916 10.3086 47.1901C10.3092 47.1893 10.31 47.1888 10.3105 47.1882L10.3096 47.1901L10.4209 47.2526C10.4216 47.2501 10.4244 47.2478 10.4248 47.2448V47.2546H10.4258L10.4248 47.2565C10.4249 47.2589 10.4247 47.2623 10.4248 47.2653H10.4258L10.4248 47.2712C10.4192 47.3557 10.4138 47.4406 10.4082 47.5251L10.4072 47.5349L10.4043 47.5436L10.4014 47.5495C10.4039 47.6556 10.411 47.7725 10.4053 47.8796C10.3256 49.3571 10.2859 50.8486 10.4258 52.4099C10.4842 53.0616 10.5719 53.7137 10.7764 54.3659C10.7799 54.3772 10.7841 54.3881 10.7881 54.3991C11.9224 52.0684 11.9417 48.4349 10.3535 45.113C9.32103 46.4881 8.66159 49.372 10.0518 53.113Z" fill="#F89460" stroke="#F89460" stroke-width="0.133333"/>
<path d="M10.5635 56.1857C10.1071 55.6767 9.59109 55.2681 9.06055 54.8849C7.78965 53.9671 6.48683 53.239 5.17578 52.5529C5.081 52.5032 4.98426 52.4381 4.89453 52.382C4.89237 52.3816 4.88979 52.3813 4.8877 52.381L4.87793 52.379L4.86914 52.3751C4.79366 52.3367 4.71814 52.2982 4.64258 52.2599L4.6377 52.257C4.63518 52.2554 4.63189 52.2544 4.62988 52.2531L4.625 52.2482L4.61914 52.2452L4.62891 52.2238L4.62988 52.1193H4.62695L4.63086 52.1183V52.1193L4.63281 52.1183C4.63461 52.1181 4.63696 52.1194 4.63965 52.1193C4.65156 52.1203 4.66441 52.121 4.67676 52.1222L4.68945 52.1232L4.70117 52.129C4.73917 52.1487 4.77745 52.1689 4.81543 52.1886C4.85339 52.2083 4.89175 52.2275 4.92969 52.2472L4.93359 52.2501C4.93512 52.2511 4.93598 52.2531 4.9375 52.254C4.95336 52.2558 4.96954 52.2561 4.99219 52.2589C5.02315 52.2628 5.05879 52.2698 5.0957 52.2863C5.32921 52.3903 5.56291 52.5007 5.7959 52.6124C7.16203 53.2676 8.52282 53.9786 9.85645 54.9249C7.34953 51.8174 4.53299 50.9111 2.82324 51.0968C4.86799 54.1584 8.00207 55.9976 10.585 56.213C10.5776 56.2041 10.5713 56.1944 10.5635 56.1857ZM4.62891 52.2277L4.62109 52.2462C4.62372 52.2474 4.62647 52.2475 4.62891 52.2482V52.2277Z" fill="#F89460" stroke="#F89460" stroke-width="0.133333"/>
<path d="M7.11719 48.7487C8.64327 46.7809 9.37891 43.3709 8.5459 39.9343C7.30556 41.0234 6.1184 43.5982 6.67773 47.3806C6.87716 45.8275 7.25943 44.4072 7.68359 43.0192C7.75616 42.7815 7.83075 42.5443 7.90918 42.3112C7.92169 42.2741 7.93959 42.244 7.95703 42.2194C7.96892 42.2027 7.97788 42.1908 7.98633 42.1794C7.98676 42.1772 7.98785 42.1748 7.98828 42.1725L7.98926 42.1686C8.01124 42.0877 8.0327 42.0113 8.05469 41.9304L8.05762 41.9167L8.06641 41.9069C8.06991 41.9024 8.07357 41.8979 8.07715 41.8932C8.08071 41.8886 8.08421 41.8833 8.08789 41.8786V41.8796C8.09019 41.8772 8.09115 41.8741 8.09277 41.8727L8.09375 41.8718L8.17188 41.9431L8.19531 41.9499C8.19529 41.95 8.19486 41.951 8.19434 41.9538C8.19398 41.9558 8.19287 41.9578 8.19238 41.9606H8.19336C8.19294 41.9631 8.19206 41.9662 8.19141 41.9694L8.19043 41.9743L8.12402 42.2097L8.12109 42.2194L8.11523 42.2282C8.11437 42.2296 8.11321 42.2307 8.1123 42.2321C8.0937 42.3322 8.07739 42.4432 8.05078 42.5427C7.6826 43.9175 7.34885 45.3133 7.1709 46.8102C7.09659 47.4354 7.0503 48.067 7.11328 48.7214C7.11416 48.7306 7.11599 48.7397 7.11719 48.7487ZM8.17285 41.944L8.18945 41.9577C8.1908 41.9552 8.19327 41.953 8.19434 41.9499L8.17285 41.944Z" fill="#F89460" stroke="#F89460" stroke-width="0.133333"/>
<path d="M6.22559 49.9392C5.91004 49.3625 5.51627 48.8668 5.10352 48.3914C4.11519 47.253 3.05546 46.2858 1.97852 45.3552C1.90008 45.2875 1.82202 45.2052 1.75 45.1326L1.74707 45.1306L1.73828 45.1267L1.73047 45.1208C1.69927 45.0945 1.6679 45.068 1.63672 45.0417C1.60566 45.0156 1.57503 44.9889 1.54395 44.9626H1.54297L1.52539 44.9451L1.53906 44.9275L1.56543 44.824H1.56641C1.56847 44.8242 1.57094 44.8272 1.57422 44.8279L1.5752 44.8259C1.58604 44.8295 1.59732 44.834 1.6084 44.8376L1.62012 44.8416L1.63086 44.8503C1.69328 44.9038 1.75602 44.957 1.81836 45.0105L1.82129 45.0144C1.82211 45.0152 1.82243 45.0165 1.82324 45.0173C1.8378 45.0225 1.85304 45.0271 1.87402 45.0349C1.90216 45.0454 1.93371 45.0602 1.96484 45.0837C2.16078 45.2326 2.35605 45.3868 2.5498 45.5427C3.68088 46.4529 4.79418 47.4144 5.83203 48.5876C4.1689 45.1416 1.73883 43.6784 0.100586 43.4753C1.34223 46.7868 3.869 49.1943 6.2373 49.9646L6.22559 49.9392ZM1.53906 44.9294L1.52637 44.946C1.5286 44.9477 1.53104 44.9488 1.5332 44.95L1.53906 44.9294Z" fill="#F89460" stroke="#F89460" stroke-width="0.133333"/>
<path d="M7.47461 36.0296L7.41113 35.9456C7.41269 35.9446 7.41422 35.9441 7.41504 35.9437L7.41602 35.9427C7.41517 35.9431 7.41268 35.9438 7.41113 35.9446C7.40915 35.9457 7.40755 35.9492 7.4043 35.9515C7.39648 35.9583 7.3885 35.9645 7.37988 35.972L7.37012 35.9808L7.36426 35.9925C7.34701 36.0267 7.32979 36.0608 7.3125 36.095C7.29513 36.1294 7.27713 36.1641 7.25977 36.1985L7.25781 36.2025C7.25715 36.204 7.25651 36.2058 7.25586 36.2073C7.24613 36.2161 7.23582 36.2254 7.22168 36.2386C7.20099 36.2579 7.1779 36.2817 7.15918 36.3138C7.04326 36.5126 6.93069 36.7162 6.81934 36.9202C6.17371 38.1027 5.55941 39.3221 5.08496 40.6946C5.29375 37.1513 6.85694 35.0327 8.19141 34.2689C8.30282 37.5645 6.99003 40.5399 5.22754 42.054C5.22797 42.0488 5.22796 42.0436 5.22852 42.0384L5.25684 41.8109C5.33441 41.2852 5.47893 40.7886 5.6416 40.3001C6.08714 38.9625 6.65629 37.747 7.25293 36.5569C7.29611 36.4709 7.33238 36.3722 7.36816 36.2845L7.37793 36.2747L7.38281 36.2659C7.41779 36.1983 7.45227 36.1304 7.4873 36.0628L7.49023 36.0569C7.49132 36.0543 7.49238 36.0512 7.49316 36.0491C7.49394 36.0471 7.49455 36.0456 7.49512 36.0443C7.49567 36.0429 7.49586 36.0418 7.49609 36.0413M7.47461 36.0296L7.49609 36.0413M7.47461 36.0296L7.49609 36.0413M7.47461 36.0296L7.48926 36.0482C7.49119 36.0459 7.49432 36.0443 7.49609 36.0413" fill="#F89460" stroke="#F89460" stroke-width="0.133333"/>
<path d="M4.10938 43.7186C3.96349 43.1219 3.72691 42.5797 3.46875 42.0507C2.85042 40.7837 2.12656 39.6542 1.37793 38.5536C1.32349 38.4736 1.27382 38.3803 1.22656 38.2977L1.22461 38.2958L1.2168 38.2899L1.21094 38.2821C1.16747 38.2199 1.12362 38.1571 1.08008 38.0946H1.0791L1.07715 38.0897C1.0756 38.0871 1.07339 38.0849 1.07227 38.0829C1.071 38.0806 1.07023 38.0786 1.06934 38.077C1.06833 38.0753 1.06761 38.0745 1.06738 38.0741L1.08789 38.0585L1.13867 37.9677H1.13965C1.14138 37.9683 1.14295 37.9713 1.14551 37.9725L1.14648 37.9716C1.15116 37.9746 1.15562 37.9784 1.16016 37.9813C1.16475 37.9843 1.16938 37.9872 1.17383 37.9901L1.18555 37.9969L1.19238 38.0087C1.23579 38.0722 1.27973 38.1357 1.32324 38.1991L1.32617 38.203C1.32691 38.2043 1.32739 38.2057 1.32812 38.2069C1.339 38.2143 1.35034 38.222 1.36621 38.2333C1.38933 38.2497 1.4156 38.2703 1.43848 38.2997C1.57963 38.4814 1.71802 38.6687 1.85547 38.8563C2.65148 39.943 3.42064 41.0705 4.07227 42.368C3.39679 38.8825 1.56745 36.9891 0.143555 36.4091C0.468563 39.6906 2.16402 42.4672 4.11133 43.7352C4.11017 43.73 4.11067 43.7239 4.10938 43.7186ZM1.08691 38.0604L1.06836 38.0751C1.07036 38.0776 1.07314 38.0791 1.0752 38.0809L1.08691 38.0604Z" fill="#F89460" stroke="#F89460" stroke-width="0.133333"/>
<path d="M5.04688 35.264C6.86799 34.1761 8.51464 31.7102 8.93652 28.7318C7.62092 29.211 5.8923 30.8606 5.14062 33.9896C5.7814 32.8413 6.52066 31.8487 7.28223 30.8939C7.41492 30.7276 7.54856 30.5618 7.68457 30.4008C7.70702 30.3742 7.73198 30.3555 7.75391 30.3412C7.76907 30.3313 7.78005 30.3249 7.79004 30.3187L7.79102 30.3168L7.79395 30.3129C7.81503 30.2847 7.83633 30.2562 7.85742 30.2279C7.87845 30.1997 7.89888 30.1711 7.91992 30.1429L7.92871 30.1322L7.93945 30.1254C7.94352 30.123 7.94802 30.121 7.95215 30.1185L7.96582 30.1107C7.96914 30.1092 7.97155 30.1065 7.97363 30.1058C7.97521 30.1053 7.97671 30.1051 7.97754 30.1049H7.97852C7.97776 30.1051 7.97624 30.1052 7.97461 30.1058L8.01855 30.1967L8.04102 30.2142C8.0413 30.2139 8.04069 30.2146 8.03906 30.2172C8.03822 30.2185 8.03735 30.22 8.03613 30.222C8.03503 30.2239 8.03375 30.2265 8.03223 30.2289L8.0293 30.2328L7.96582 30.3158C7.94466 30.3436 7.92349 30.372 7.90234 30.3998L7.89648 30.4076L7.88867 30.4135L7.88574 30.4154C7.83997 30.4883 7.79147 30.5716 7.73926 30.642C7.01299 31.6207 6.30834 32.6267 5.69531 33.7621C5.43931 34.2362 5.20354 34.7232 5.04785 35.2631L5.04688 35.264ZM8.04004 30.2162L8.02051 30.1996L8.03125 30.222C8.03378 30.22 8.03753 30.2191 8.04004 30.2162Z" fill="#F89460" stroke="#F89460" stroke-width="0.133333"/>
<path d="M5.81738 29.0528C7.84061 28.4144 10.0127 26.3948 11.1104 23.5938C9.71999 23.7561 7.65781 24.9619 6.2041 27.8321C7.09205 26.8635 8.04022 26.0693 9.00098 25.3165V25.3155C9.16848 25.1843 9.33735 25.054 9.50684 24.9288C9.53481 24.9081 9.56327 24.8956 9.58789 24.8868C9.60442 24.8809 9.6161 24.8777 9.62695 24.8741L9.63281 24.8682C9.68679 24.8232 9.74101 24.7785 9.79492 24.7335L9.80566 24.7247L9.83203 24.7159L9.84668 24.712C9.84995 24.7113 9.8524 24.7092 9.85449 24.709H9.85547L9.87891 24.8087L9.89648 24.8301L9.88086 24.8458L9.71875 24.9786L9.71094 24.9844L9.70117 24.9883L9.69922 24.9893C9.63777 25.0498 9.57113 25.1192 9.50391 25.1758V25.1768C8.57145 25.9615 7.65343 26.7771 6.79492 27.7403C6.48122 28.0923 6.18009 28.4575 5.9248 28.8712L5.81836 29.0518L5.81738 29.0528ZM9.89551 24.8311L9.87891 24.8106L9.88477 24.835C9.8879 24.8335 9.89217 24.8336 9.89551 24.8311Z" fill="#F89460" stroke="#F89460" stroke-width="0.133333"/>
<path d="M4.16699 29.4163C4.25687 28.8617 4.2524 28.3205 4.22363 27.7825C4.15448 26.4939 3.9473 25.2833 3.70898 24.0881C3.69173 24.0016 3.68307 23.9054 3.67285 23.8196L3.67188 23.8176L3.66699 23.8088L3.66406 23.7991C3.64961 23.7309 3.63554 23.6622 3.62109 23.594L3.62012 23.5891C3.61975 23.5863 3.61936 23.5834 3.61914 23.5813C3.61893 23.5793 3.6193 23.5778 3.61914 23.5764C3.61899 23.5751 3.61824 23.574 3.61816 23.5735C3.61914 23.5772 3.62166 23.5803 3.62305 23.5833L3.72656 23.5051C3.72544 23.5038 3.72434 23.5029 3.72363 23.5022L3.72266 23.5002C3.72328 23.5008 3.72533 23.503 3.72656 23.5042C3.72812 23.5057 3.72826 23.5093 3.73047 23.512L3.73145 23.511C3.73433 23.5153 3.73748 23.5196 3.74023 23.5237C3.743 23.5278 3.74536 23.5324 3.74805 23.5364L3.75586 23.5471L3.75781 23.5598C3.77187 23.6288 3.78577 23.6988 3.7998 23.7678H3.80078V23.7747C3.8071 23.7844 3.81387 23.7946 3.82324 23.8098C3.83696 23.832 3.85234 23.8592 3.86133 23.8928C3.91553 24.0964 3.96576 24.3039 4.01465 24.511C4.29508 25.6994 4.53837 26.913 4.62695 28.2249C5.2844 25.0744 4.42614 22.8451 3.44141 21.8499C2.55036 24.7222 2.98505 27.6554 4.16602 29.4172L4.16699 29.4163Z" fill="#F89460" stroke="#F89460" stroke-width="0.133333"/>
<path d="M3.50781 36.4345C3.47385 35.8734 3.35036 35.3457 3.2041 34.8271C2.85403 33.5851 2.38632 32.4496 1.8916 31.3359C1.85594 31.2556 1.82653 31.1641 1.79785 31.0829C1.79715 31.0822 1.79658 31.0808 1.7959 31.08L1.78906 31.0732L1.78516 31.0634C1.75621 31.0001 1.72636 30.9374 1.69727 30.874L1.69531 30.8681C1.69445 30.8657 1.69398 30.8631 1.69336 30.8613C1.69271 30.8593 1.69185 30.8577 1.69141 30.8564C1.6908 30.8547 1.69048 30.8536 1.69043 30.8535L1.69824 30.8622L1.78027 30.7626C1.77819 30.7611 1.77592 30.76 1.77539 30.7597H1.77637C1.7771 30.7601 1.77886 30.7608 1.78027 30.7617C1.78206 30.7627 1.78336 30.7664 1.78613 30.7685L1.78711 30.7675C1.79431 30.7743 1.80126 30.782 1.80859 30.789L1.81836 30.7978L1.82422 30.8095C1.85423 30.8765 1.88012 30.9359 1.91016 31.0029L1.91211 31.0078V31.0097C1.92051 31.018 1.92978 31.0261 1.94238 31.039C1.96072 31.0577 1.98187 31.0812 1.99805 31.1122C2.09552 31.299 2.18916 31.4902 2.28223 31.6816C2.81672 32.7798 3.32108 33.9102 3.69531 35.1708C3.6458 31.9522 2.3189 29.9646 1.13965 29.2099C0.900054 32.2085 1.96851 34.9756 3.50781 36.4355V36.4345Z" fill="#F89460" stroke="#F89460" stroke-width="0.133333"/>
<path d="M12.7461 19.9224C12.747 19.9218 12.7477 19.9216 12.748 19.9214L12.7354 19.895L12.7324 19.7954C12.7304 19.7952 12.7278 19.7964 12.7246 19.7964V19.7944L12.6836 19.7974L12.6719 19.8042C12.6138 19.8344 12.5552 19.8639 12.4971 19.894L12.4932 19.897L12.4912 19.8979C12.4811 19.899 12.4699 19.8999 12.4541 19.9019C12.4299 19.9049 12.4011 19.91 12.3711 19.9233C12.1921 20.0029 12.0132 20.0878 11.835 20.1733C10.8228 20.6587 9.81351 21.1839 8.82324 21.8745C10.7049 19.5922 12.7972 18.9172 14.084 19.0435C12.5326 21.3508 10.1729 22.7403 8.21777 22.9194C8.56326 22.5367 8.95279 22.228 9.35449 21.938C10.3256 21.2369 11.3207 20.6803 12.3232 20.1558C12.395 20.1182 12.4689 20.0691 12.5361 20.0269L12.5391 20.0259L12.5488 20.0239L12.5576 20.02L12.7305 19.9312L12.7354 19.9292C12.7377 19.9278 12.7405 19.9264 12.7422 19.9253C12.7439 19.9242 12.7449 19.9231 12.7461 19.9224ZM12.7461 19.9224L12.7354 19.8979V19.9243C12.7386 19.9236 12.7425 19.9239 12.7461 19.9224Z" fill="#F89460" stroke="#F89460" stroke-width="0.133333"/>
<path d="M6.82227 17.9326V17.9394C6.82215 17.9414 6.82137 17.9444 6.82129 17.9472V17.9521C6.82458 18.016 6.82873 18.0824 6.83203 18.1464V18.1572L6.83594 18.1689C6.83273 18.2482 6.82695 18.3369 6.83008 18.4179C6.87359 19.5485 6.88601 20.6888 6.76074 21.8798C6.70892 22.3723 6.63475 22.8636 6.47461 23.3535C5.65769 21.5683 5.68885 18.8303 6.91895 16.3369C7.6686 17.3904 8.12378 19.5414 7.0791 22.3095C7.18581 21.1066 7.13998 19.9693 7.05762 18.8495C7.04313 18.6526 7.0277 18.4553 7.00781 18.2607C7.00447 18.2279 6.99475 18.2003 6.98535 18.1777C6.97882 18.162 6.97406 18.1514 6.96973 18.1415L6.9707 18.1367H6.96973C6.96702 18.0712 6.96473 18.0058 6.96191 17.9404L6.96094 17.9277L6.95605 17.916C6.95404 17.9115 6.95214 17.9065 6.9502 17.9023C6.9483 17.8982 6.94611 17.8945 6.94434 17.8906L6.94238 17.8915C6.94072 17.8887 6.94078 17.8855 6.93945 17.8837M6.82227 17.9326L6.85156 17.9306M6.82227 17.9326L6.85156 17.9306M6.82227 17.9326V17.9335M6.85156 17.9306L6.93945 17.8837M6.85156 17.9306L6.85059 17.9316M6.93945 17.8837L6.94043 17.8828C6.93945 17.8812 6.93809 17.8796 6.9375 17.8788L6.93652 17.8779L6.93945 17.8818V17.8837ZM6.85059 17.9316L6.82227 17.9335M6.85059 17.9316L6.82227 17.9335M6.85059 17.9316L6.82617 17.9443C6.82514 17.9409 6.82271 17.9377 6.82227 17.9335" fill="#F89460" stroke="#F89460" stroke-width="0.133333"/>
<path d="M9.44238 18.7271C11.2887 18.0595 13.2208 16.1192 14.1387 13.4946C12.8617 13.6976 11.0075 14.8797 9.76367 17.564C10.5474 16.6453 11.3912 15.8822 12.248 15.1567C12.3987 15.0291 12.5504 14.902 12.7031 14.7798H12.7041C12.7299 14.7592 12.7565 14.7459 12.7793 14.7368C12.7944 14.7308 12.8047 14.7268 12.8145 14.7231V14.7222L12.8184 14.7192C12.867 14.6754 12.9153 14.6313 12.9639 14.5874L12.9736 14.5786L12.9863 14.5747C12.9908 14.5731 12.9956 14.5714 13 14.5698C13.0042 14.5683 13.0086 14.5674 13.0127 14.5659C13.0164 14.565 13.0193 14.5623 13.0215 14.562V14.563L13.0479 14.6597L13.0674 14.6821L13.0625 14.687C13.0612 14.6885 13.0595 14.6909 13.0576 14.6929L13.0537 14.6958L12.9082 14.8257L12.9014 14.8315L12.8896 14.8374C12.8353 14.8952 12.7767 14.9616 12.7168 15.0161H12.7158C11.8784 15.777 11.0564 16.5669 10.2939 17.4907C9.97876 17.8726 9.67994 18.2695 9.44238 18.7271ZM13.0664 14.6831L13.0488 14.6616L13.0557 14.688C13.0589 14.6864 13.063 14.6857 13.0664 14.6831Z" fill="#F89460" stroke="#F89460" stroke-width="0.133333"/>
<path d="M34.25 1.112C34.5391 1.11176 34.7725 0.877761 34.7725 0.588562C34.7724 0.300573 34.5392 0.0673209 34.25 0.0670776C33.9607 0.0670776 33.7276 0.300245 33.7275 0.588562C33.7275 0.878089 33.9607 1.112 34.25 1.112ZM29.6045 2.39716C29.8927 2.39693 30.1259 2.16302 30.126 1.87372C30.126 1.5855 29.8928 1.35148 29.6045 1.35126C29.3165 1.35126 29.082 1.58539 29.082 1.87372C29.0821 2.16313 29.3166 2.39716 29.6045 2.39716ZM38.8584 2.39716C39.1462 2.39707 39.3798 2.16306 39.3799 1.87372C39.3799 1.58546 39.1463 1.35135 38.8584 1.35126C38.57 1.35126 38.3359 1.58537 38.3359 1.87372C38.336 2.16315 38.5701 2.39716 38.8584 2.39716ZM30.127 6.14032C30.1613 6.13132 30.2019 6.12203 30.248 6.11395L30.2852 6.10712L30.2861 6.10907C30.8783 6.01469 32.4246 5.94696 34.2334 5.94696C36.067 5.94697 37.6306 6.01638 38.2041 6.11298L38.2051 6.112C38.2427 6.11655 38.2834 6.12447 38.3262 6.13544L38.334 6.13934C38.6234 5.00165 38.9128 3.86399 39.2021 2.72723H38.5684L38.5654 2.74188H38.5176C38.3842 3.14027 38.1241 3.35765 37.7861 3.4577C37.4407 3.55988 37.0184 3.54008 36.5801 3.48212C36.1222 3.42191 35.7022 3.1322 35.3682 2.74579C35.0452 2.37217 34.7978 1.90169 34.666 1.44208H33.7988C33.6665 1.90228 33.4177 2.37291 33.0947 2.74677C32.7608 3.13321 32.342 3.42299 31.8838 3.48212C31.4354 3.54007 31.0124 3.55997 30.6689 3.4577C30.3324 3.35749 30.0763 3.14009 29.9443 2.74188H29.8994L29.8965 2.72723H29.2598C29.5491 3.86487 29.8377 5.00268 30.127 6.14032ZM30.2598 6.17938H30.2588L30.2119 6.1452C30.2003 6.16179 30.2008 6.1784 30.2012 6.18427C30.2013 6.18697 30.2017 6.18968 30.2021 6.19208C30.22 6.18836 30.2391 6.183 30.2598 6.17938Z" fill="#F89460" stroke="#F89460" stroke-width="0.133333"/>
<path d="M45.3926 5.34338L45.3896 5.3092L45.416 5.28674L46.29 4.54651L45.1689 4.31702L45.1357 4.31018L45.1221 4.27893L44.6436 3.23206L44.0986 4.22034L44.082 4.24963L44.0498 4.25452H44.0459C44.0435 4.25485 44.0398 4.2558 44.0352 4.25647C44.0259 4.2578 44.0124 4.25978 43.9951 4.26233C43.9604 4.26748 43.9101 4.27435 43.8506 4.28381C43.7315 4.30274 43.5735 4.32998 43.416 4.36096H43.415C43.2571 4.39119 43.0988 4.42085 42.9805 4.44299C42.9566 4.44746 42.9344 4.4519 42.9141 4.45569L43.7363 5.21057L43.7627 5.23401L43.7568 5.26917L43.585 6.3844C43.5971 6.37679 43.6096 6.36831 43.623 6.35999C43.7208 6.29954 43.8527 6.22222 43.9863 6.15295L43.9883 6.15198C44.1219 6.08593 44.2552 6.01919 44.3555 5.96936C44.4055 5.94447 44.4473 5.92338 44.4766 5.90881C44.4911 5.90157 44.5029 5.89611 44.5107 5.89221C44.5144 5.89041 44.5175 5.88931 44.5195 5.88831C44.5205 5.8878 44.5219 5.88661 44.5225 5.88635H44.5234L44.5566 5.86975L44.5889 5.89026L45.4902 6.46936L45.3926 5.34338Z" fill="#F89460" stroke="#F89460" stroke-width="0.133333"/>
<path d="M51.9688 10.1056L51.9658 10.0714L51.9922 10.049L52.8662 9.30872L51.7451 9.07922L51.7119 9.07239L51.6982 9.04211L51.2197 7.99329L50.6748 8.98254L50.6582 9.01184L50.625 9.01672H50.6221C50.6197 9.01706 50.616 9.01801 50.6113 9.01868C50.6021 9.02001 50.5885 9.02198 50.5713 9.02454C50.5365 9.02969 50.4863 9.03655 50.4268 9.04602C50.3077 9.06495 50.1496 9.09218 49.9922 9.12317H49.9912C49.8332 9.1534 49.675 9.18306 49.5566 9.2052C49.5328 9.20967 49.5106 9.2141 49.4902 9.2179L50.3125 9.97278L50.3389 9.99622L50.333 10.0314L50.1611 11.1466C50.1733 11.139 50.1858 11.1305 50.1992 11.1222C50.297 11.0619 50.4288 10.9843 50.5625 10.9152L50.5635 10.9142C50.6973 10.8476 50.8313 10.7815 50.9316 10.7316C50.9817 10.7067 51.0235 10.6856 51.0527 10.671C51.0673 10.6638 51.0791 10.6583 51.0869 10.6544C51.0907 10.6525 51.0937 10.6505 51.0957 10.6495L51.0986 10.6486L51.1328 10.631L51.165 10.6515L52.0664 11.2316L51.9688 10.1056Z" fill="#F89460" stroke="#F89460" stroke-width="0.133333"/>
<path d="M23.873 5.89026L23.9053 5.86975L23.9385 5.88635H23.9395L23.9414 5.88831C23.9434 5.88931 23.9473 5.89026 23.9512 5.89221C23.9589 5.89607 23.9701 5.90172 23.9844 5.90881C24.0136 5.92338 24.0563 5.94442 24.1064 5.96936C24.2067 6.01919 24.34 6.08593 24.4736 6.15198L24.4746 6.15295C24.6082 6.22217 24.7401 6.2995 24.8379 6.35999C24.8512 6.3682 24.864 6.37688 24.876 6.3844L24.7051 5.26917L24.6992 5.23401L24.7256 5.21057L25.5469 4.45569C25.5266 4.45191 25.5042 4.44744 25.4805 4.44299C25.3622 4.42087 25.2047 4.39115 25.0469 4.36096H25.0459C24.8883 4.32993 24.7295 4.30275 24.6104 4.28381C24.551 4.27438 24.5015 4.26747 24.4668 4.26233C24.4496 4.25978 24.436 4.2578 24.4268 4.25647C24.4221 4.25581 24.4184 4.25485 24.416 4.25452H24.4121L24.3799 4.24963L24.3633 4.22034L23.8174 3.23206L23.3398 4.27893L23.3252 4.31018L23.292 4.31702L22.1709 4.54553L23.0459 5.28674L23.0723 5.3092L23.0693 5.34338L22.9707 6.46838L23.873 5.89026Z" fill="#F89460" stroke="#F89460" stroke-width="0.133333"/>
<path d="M17.2969 10.6515L17.3291 10.631L17.3623 10.6486H17.3633L17.3652 10.6495C17.3672 10.6505 17.3703 10.6525 17.374 10.6544C17.3818 10.6583 17.3937 10.6638 17.4082 10.671C17.4374 10.6855 17.4793 10.7067 17.5293 10.7316C17.6296 10.7814 17.7637 10.8477 17.8975 10.9142L17.8984 10.9152C18.0321 10.9843 18.1639 11.0619 18.2617 11.1222C18.2751 11.1304 18.2878 11.1391 18.2998 11.1466L18.1289 10.0314L18.123 9.99622L18.1494 9.97278L18.9707 9.2179C18.9504 9.21412 18.928 9.20964 18.9043 9.2052C18.786 9.18307 18.6284 9.15336 18.4707 9.12317H18.4697C18.3121 9.09214 18.1533 9.06496 18.0342 9.04602C17.9749 9.03659 17.9253 9.02967 17.8906 9.02454C17.8735 9.02199 17.8599 9.02001 17.8506 9.01868C17.846 9.01802 17.8422 9.01706 17.8398 9.01672H17.8359L17.8027 9.01184L17.7871 8.98254L17.2412 7.99329L16.7637 9.04211L16.749 9.07239L16.7158 9.07922L15.5947 9.30872L16.4697 10.049L16.4961 10.0714L16.4932 10.1056L16.3945 11.2306L17.2969 10.6515Z" fill="#F89460" stroke="#F89460" stroke-width="0.133333"/>
</svg>
