<svg width="69" height="66" viewBox="0 0 69 66" fill="none" xmlns="http://www.w3.org/2000/svg">
<path d="M43.7139 57.243L43.7129 57.244C43.7123 57.245 43.7111 57.2463 43.71 57.2479L43.709 57.2499L43.708 57.2489L43.707 57.2518L43.7061 57.2538C43.7044 57.2561 43.7022 57.2596 43.7002 57.2626L43.6973 57.2665C43.6746 57.3073 43.6525 57.3487 43.6299 57.3895C43.6074 57.4302 43.585 57.471 43.5625 57.5116L43.5576 57.5204L43.5547 57.5302C43.5541 57.533 43.5533 57.536 43.5527 57.5389C43.4871 57.6358 43.4118 57.7393 43.3535 57.8417C42.5468 59.257 41.6949 60.6619 40.6348 62.0243C40.192 62.594 39.7212 63.1467 39.1426 63.6288C39.1286 63.6405 39.1133 63.65 39.0986 63.661C39.432 60.8199 41.5862 57.4303 45.0488 55.2968C45.1913 57.1941 44.0756 60.2815 40.5195 62.9296C41.6273 61.4876 42.4703 60.0058 43.252 58.5155C43.384 58.2633 43.515 58.0105 43.6387 57.7577C43.6576 57.7187 43.6664 57.6809 43.6719 57.6473C43.6759 57.6226 43.678 57.6047 43.6807 57.5868L43.6855 57.58L43.6885 57.576H43.6875L43.8271 57.33L43.833 57.3192L43.835 57.3055L43.8408 57.2587V57.2577L43.7295 57.2509L43.7139 57.2421V57.243ZM43.7139 57.243C43.7128 57.2453 43.7126 57.2477 43.7119 57.2499L43.7285 57.2509L43.7139 57.243Z" fill="#0A1B49" stroke="#0A1B49" stroke-width="0.133333"/>
<path d="M48.6865 63.5585L48.6182 63.6669C48.6233 63.6686 48.6288 63.6698 48.6348 63.6699V63.6708L48.6279 63.6699H48.5996C48.5064 63.6657 48.4134 63.6613 48.3203 63.6572H48.3105L48.3008 63.6542C48.2986 63.6535 48.2962 63.6531 48.2939 63.6523C48.1768 63.6572 48.0478 63.6669 47.9297 63.663C46.3012 63.6089 44.6584 63.5979 42.9424 63.787C42.3154 63.8562 41.6881 63.951 41.0625 64.1347L40.7949 64.2187L40.7441 64.2402C43.3394 65.4444 47.3546 65.3838 50.9854 63.5517C49.4437 62.4367 46.2302 61.7698 42.1123 63.412C43.9202 63.2233 45.6242 63.2821 47.3027 63.3964L48.1504 63.4638C48.1935 63.4678 48.2303 63.4804 48.2617 63.4931C48.2855 63.5028 48.3022 63.5114 48.3193 63.5185C48.3216 63.5184 48.3239 63.5176 48.3262 63.5175V63.5165L48.3311 63.5175C48.4251 63.5206 48.5197 63.5231 48.6143 63.5273L48.626 63.5283L48.6377 63.5331C48.6424 63.5352 48.647 63.5386 48.6523 63.541C48.6655 63.5441 48.6758 63.5484 48.6816 63.5527C48.6841 63.5545 48.6853 63.5575 48.6865 63.5585Z" fill="#0A1B49" stroke="#0A1B49" stroke-width="0.133333"/>
<path d="M49.7988 53.5115V53.5105L49.7979 53.5125C49.7974 53.5134 49.7976 53.5149 49.7969 53.5164L49.7949 53.5183H49.7939C49.7939 53.5196 49.793 53.5209 49.793 53.5222V53.5232C49.7917 53.5255 49.7896 53.5281 49.7881 53.531L49.7852 53.5359V53.5369C49.7496 53.6195 49.7103 53.7111 49.6748 53.7937L49.6709 53.8035L49.6699 53.8132C49.6696 53.8158 49.6692 53.8184 49.6689 53.821C49.6132 53.9243 49.549 54.0354 49.501 54.1433C48.8399 55.6325 48.1324 57.1156 47.2139 58.5779C46.8304 59.1879 46.4178 59.7843 45.8906 60.322L45.8496 60.3591C45.8967 57.4987 47.7007 53.9107 50.9326 51.4412C51.2641 53.3147 50.4633 56.4975 47.1904 59.488C48.1482 57.9428 48.8384 56.3838 49.4668 54.823C49.5731 54.5592 49.6786 54.2948 49.7764 54.031C49.7914 53.9903 49.7958 53.9516 49.7979 53.9177C49.7994 53.8926 49.7999 53.8743 49.8008 53.8562L49.8047 53.8494L49.8066 53.8455L49.9209 53.5867L49.9258 53.574L49.9268 53.5613C49.9271 53.548 49.9274 53.5346 49.9277 53.5212C49.9274 53.5186 49.9281 53.5162 49.9277 53.5144C49.9274 53.5125 49.927 53.5105 49.9268 53.5095V53.5085C49.9269 53.5093 49.9266 53.5109 49.9268 53.5125L49.8174 53.5173L49.7998 53.5105L49.7988 53.5115ZM49.7988 53.5115L49.8164 53.5173L49.7979 53.5183C49.7983 53.5162 49.798 53.5138 49.7988 53.5115Z" fill="#0A1B49" stroke="#0A1B49" stroke-width="0.133333"/>
<path d="M47.3916 60.6542C50.0786 61.6367 54.0737 61.2411 57.5381 59.1122C55.9084 58.1298 52.6499 57.7352 48.6836 59.7167C50.4698 59.3768 52.1729 59.2926 53.8555 59.2656C54.1398 59.2614 54.4245 59.2585 54.7061 59.2626C54.7492 59.2633 54.7868 59.272 54.8193 59.2822C54.8431 59.2896 54.8593 59.2961 54.876 59.3017C54.8791 59.3013 54.8826 59.3001 54.8857 59.2997H54.8906C54.9374 59.2977 54.9843 59.2952 55.0312 59.2929C55.0783 59.2906 55.1256 59.2882 55.1729 59.2861L55.1875 59.2851L55.2012 59.291C55.2111 59.2951 55.2215 59.2984 55.2344 59.3027L55.2334 59.3036C55.237 59.3054 55.2412 59.3044 55.2432 59.3056C55.2448 59.3066 55.2463 59.308 55.2471 59.3085C55.2479 59.3091 55.2476 59.3092 55.248 59.3095C55.2481 59.3095 55.246 59.308 55.2432 59.3066L55.1934 59.4257C55.1955 59.426 55.1978 59.4267 55.2002 59.4267L55.1924 59.4286V59.4296C55.1911 59.4292 55.1898 59.4291 55.1885 59.4286C55.1865 59.429 55.1843 59.4301 55.1816 59.4306H55.1709C55.0776 59.4337 54.9844 59.4372 54.8916 59.4413H54.8809L54.8711 59.4394C54.8687 59.4387 54.8658 59.4382 54.8633 59.4374C54.7472 59.4524 54.6199 59.4727 54.502 59.4785C52.8747 59.5607 51.2369 59.6879 49.543 60.0204C48.9241 60.1423 48.307 60.2883 47.6992 60.5234L47.4395 60.6298L47.3916 60.6542Z" fill="#0A1B49" stroke="#0A1B49" stroke-width="0.133333"/>
<path d="M52.5479 55.334C52.9297 54.7365 53.1952 54.1073 53.4307 53.4707C53.9947 51.946 54.3601 50.4419 54.6816 48.9414C54.7049 48.8333 54.7432 48.7194 54.7744 48.6143C54.7741 48.6116 54.7737 48.609 54.7734 48.6064L54.7725 48.5957L54.7744 48.5859C54.7917 48.5 54.8088 48.414 54.8262 48.3281V48.3271L54.8281 48.3223C54.8329 48.3055 54.8342 48.3051 54.835 48.3008L54.8555 48.3047L54.96 48.2773L54.8965 48.2979L54.959 48.2783H54.96C54.9608 48.2803 54.9599 48.2838 54.9609 48.2871L54.9619 48.2861C54.9643 48.2993 54.9662 48.3095 54.9688 48.3232L54.9717 48.3369L54.9688 48.3496C54.9505 48.4362 54.9322 48.5228 54.9141 48.6094L54.9121 48.6143L54.9102 48.6211C54.9128 48.6374 54.9156 48.6537 54.9189 48.6768C54.9236 48.7087 54.927 48.746 54.9209 48.7871C54.8818 49.0493 54.836 49.3134 54.7891 49.5771C54.5128 51.1296 54.1795 52.692 53.6006 54.293C56.0215 50.9171 56.1453 47.842 55.4824 46.1826C52.987 49.0787 52.0186 52.7255 52.5234 55.3682C52.5316 55.3567 52.5403 55.3459 52.5479 55.334ZM54.8535 48.3047L54.834 48.3027C54.8337 48.3051 54.835 48.3074 54.835 48.3096L54.8535 48.3047Z" fill="#0A1B49" stroke="#0A1B49" stroke-width="0.133333"/>
<path d="M59.5645 54.2984L59.584 54.192L59.5879 54.1929L59.5859 54.192C59.585 54.1916 59.5835 54.1915 59.582 54.191C59.58 54.1903 59.5765 54.1917 59.5732 54.191L59.5742 54.19C59.5615 54.1886 59.5486 54.1873 59.5361 54.1861L59.5234 54.1851L59.5107 54.189C59.4259 54.2143 59.3408 54.239 59.2559 54.2642L59.251 54.2662L59.2451 54.2691C59.2286 54.2678 59.212 54.2657 59.1885 54.2642C59.1563 54.2622 59.1186 54.2625 59.0781 54.272C58.8201 54.3324 58.5607 54.399 58.3018 54.4673C56.7778 54.8695 55.248 55.3291 53.7002 56.0367C56.8662 53.349 59.9201 52.9746 61.6279 53.4996C58.9455 56.2234 55.3898 57.487 52.7148 57.1998C52.7256 57.1907 52.7358 57.181 52.7471 57.1724C53.3114 56.743 53.9171 56.4271 54.5322 56.1402C56.0056 55.4533 57.4742 54.9661 58.9434 54.523C59.05 54.4908 59.1618 54.4438 59.2646 54.4039H59.2803L59.29 54.4009L59.5439 54.3277L59.5488 54.3267L59.5576 54.3228H59.5605L59.5684 54.3189H59.5693L59.5703 54.3179M59.5645 54.2984L59.5703 54.3179M59.5645 54.2984L59.5703 54.3179M59.5645 54.2984L59.5615 54.3179C59.5643 54.3177 59.5673 54.3187 59.5703 54.3179" fill="#0A1B49" stroke="#0A1B49" stroke-width="0.133333"/>
<path d="M57.6846 50.2825C57.8889 49.6303 57.9766 48.9782 58.0352 48.3264C58.1751 46.7652 58.1354 45.2736 58.0557 43.7961C58.0499 43.6894 58.0561 43.5728 58.0586 43.467C58.0577 43.4649 58.0574 43.4623 58.0566 43.4602L58.0527 43.4514V43.4417C58.0499 43.3993 58.0467 43.356 58.0439 43.3137C58.0412 43.2717 58.0379 43.2297 58.0352 43.1877V43.1731C58.0353 43.1703 58.0361 43.1682 58.0361 43.1663C58.0362 43.1636 58.0362 43.162 58.0361 43.1614C58.0365 43.1643 58.0384 43.1667 58.0391 43.1692L58.0557 43.1594L58.0576 43.1584L58.1504 43.1057C58.1489 43.1035 58.1474 43.1018 58.1475 43.1018H58.1484L58.1494 43.1028C58.15 43.1035 58.1503 43.1053 58.1514 43.1067C58.1526 43.1083 58.1525 43.1117 58.1543 43.1145L58.1553 43.1135C58.1604 43.1243 58.1656 43.1349 58.1709 43.1458L58.1768 43.1584L58.1777 43.1711C58.1802 43.2137 58.1821 43.2565 58.1846 43.2991L58.1924 43.428V43.4329C58.1924 43.4351 58.1914 43.4374 58.1914 43.4397C58.1978 43.4537 58.2052 43.4675 58.2139 43.4875C58.2263 43.5161 58.2394 43.5501 58.2441 43.5901C58.2739 43.8441 58.2983 44.1022 58.3213 44.3596C58.4557 45.869 58.5397 47.4023 58.4072 49.0325C59.799 45.2898 59.1392 42.4049 58.1064 41.0295C56.5185 44.3514 56.5377 47.985 57.6719 50.3157C57.6759 50.3046 57.681 50.2938 57.6846 50.2825Z" fill="#0A1B49" stroke="#0A1B49" stroke-width="0.133333"/>
<path d="M63.8418 48.1628L63.8428 48.1618L63.833 48.1423L63.8311 48.0358V48.0349L63.8301 48.0358V48.0349C63.8281 48.0346 63.8252 48.0369 63.8223 48.0368V48.0358C63.8101 48.0369 63.7976 48.0376 63.7852 48.0388L63.7725 48.0397L63.7607 48.0456C63.7227 48.0653 63.6845 48.0854 63.6465 48.1052C63.6087 48.1248 63.5709 48.1442 63.5332 48.1638L63.5283 48.1667C63.5269 48.1675 63.5258 48.1688 63.5244 48.1696C63.5086 48.1714 63.4923 48.1726 63.4697 48.1755C63.4389 48.1794 63.4039 48.1866 63.3672 48.2028C63.1335 48.3069 62.8991 48.4172 62.666 48.529C61.2995 49.1844 59.9386 49.8957 58.6045 50.8425C61.1112 47.7344 63.9281 46.8281 65.6387 47.0134C63.5934 50.0749 60.4598 51.9143 57.877 52.1296C57.8843 52.1206 57.8906 52.1109 57.8984 52.1022C58.3549 51.5932 58.8717 51.1848 59.4023 50.8015C60.6732 49.8837 61.976 49.1556 63.2871 48.4694C63.3819 48.4198 63.4787 48.3547 63.5684 48.2985L63.5742 48.2975L63.584 48.2956L63.5928 48.2917C63.6683 48.2533 63.744 48.2147 63.8193 48.1765L63.8252 48.1735H63.8242C63.8265 48.1721 63.8292 48.1708 63.8311 48.1696L63.834 48.1686L63.833 48.1677C63.8347 48.1665 63.8365 48.1656 63.8379 48.1647C63.8394 48.1638 63.8409 48.1633 63.8418 48.1628ZM63.8418 48.1628L63.833 48.1442V48.1647C63.8357 48.164 63.8389 48.1641 63.8418 48.1628Z" fill="#0A1B49" stroke="#0A1B49" stroke-width="0.133333"/>
<path d="M61.3477 44.6379C61.4106 43.9835 61.3634 43.352 61.2891 42.7268C61.111 41.2299 60.7782 39.834 60.4102 38.4592C60.3835 38.3597 60.3654 38.2488 60.3467 38.1487C60.3459 38.1475 60.3455 38.146 60.3447 38.1448L60.3398 38.136L60.3369 38.1262C60.3149 38.0479 60.2926 37.9693 60.2705 37.8909L60.2695 37.885C60.269 37.8821 60.268 37.8795 60.2676 37.8772C60.2671 37.8746 60.2669 37.8722 60.2666 37.8704C60.266 37.8668 60.2656 37.8655 60.2656 37.8655L60.2871 37.8586L60.3662 37.7883L60.3643 37.7864C60.3651 37.787 60.3667 37.7881 60.3682 37.7893C60.3698 37.7907 60.3707 37.7937 60.373 37.7961C60.3799 37.8051 60.3873 37.8142 60.3945 37.8235L60.4023 37.8333L60.4062 37.8469L60.4707 38.0852L60.4717 38.0891C60.472 38.0909 60.4723 38.0931 60.4727 38.095C60.4814 38.1068 60.4906 38.1187 60.5029 38.136C60.5204 38.1606 60.5393 38.1906 60.5518 38.2278C60.6303 38.4608 60.7037 38.6982 60.7764 38.9358C61.2005 40.3237 61.5827 41.7441 61.7822 43.2971C62.3419 39.5132 61.1539 36.9383 59.9131 35.8499C59.0798 39.2865 59.8168 42.6974 61.3428 44.6653C61.344 44.6562 61.3468 44.6472 61.3477 44.6379ZM60.2861 37.8596L60.2656 37.8665C60.2666 37.8694 60.2683 37.8718 60.2695 37.8743L60.2861 37.8596Z" fill="#0A1B49" stroke="#0A1B49" stroke-width="0.133333"/>
<path d="M62.2236 45.8812C64.592 45.1112 67.1179 42.7035 68.3594 39.3919C66.7216 39.5956 64.2917 41.0589 62.6289 44.5042C63.6669 43.3308 64.781 42.3696 65.9121 41.4593C66.106 41.3035 66.3006 41.1491 66.4961 41.0003V40.9993C66.5274 40.9758 66.5597 40.9619 66.5879 40.9515C66.6075 40.9442 66.6221 40.9397 66.6357 40.9349L66.6436 40.9271C66.7059 40.8735 66.7687 40.8204 66.8311 40.7669L66.8408 40.7581L66.8535 40.7532L66.8857 40.7435C66.8892 40.7427 66.892 40.7408 66.8945 40.7405H66.8965L66.9219 40.8411L66.9385 40.8597C66.936 40.8618 66.9328 40.8652 66.9287 40.8694H66.9297L66.9277 40.8704C66.9266 40.8716 66.9251 40.873 66.9238 40.8743L66.918 40.8792L66.7305 41.0374L66.7227 41.0433L66.7139 41.0472L66.71 41.0491L66.4834 41.2718L65.6797 41.9788C64.8811 42.6967 64.0996 43.4542 63.3584 44.3079C62.9973 44.7239 62.6506 45.1552 62.3584 45.6429L62.2363 45.8558L62.2236 45.8812ZM66.9326 40.8646L66.9258 40.8548L66.9287 40.8665C66.9299 40.8658 66.9314 40.8654 66.9326 40.8646Z" fill="#0A1B49" stroke="#0A1B49" stroke-width="0.133333"/>
<path d="M61.0498 31.8611L60.9873 31.9442L60.9648 31.9568C60.9647 31.9566 60.9655 31.9574 60.9668 31.9608C60.9674 31.9624 60.9678 31.9643 60.9688 31.9666C60.9696 31.9687 60.9705 31.9717 60.9717 31.9744L60.9736 31.9793C61.0086 32.047 61.044 32.1147 61.0791 32.1824L61.084 32.1912L61.0908 32.1981C61.0916 32.1989 61.092 32.2002 61.0928 32.201C61.1286 32.2888 61.1657 32.3873 61.209 32.4734C61.8056 33.6635 62.3739 34.879 62.8193 36.2166C63.0054 36.7751 63.1677 37.344 63.2334 37.9549C63.234 37.9601 63.233 37.9654 63.2334 37.9705C61.4711 36.4563 60.1572 33.4807 60.2686 30.1854C61.6034 30.9486 63.1672 33.0667 63.376 36.6111C62.9015 35.2387 62.2882 34.0191 61.6426 32.8367C61.5312 32.6327 61.4186 32.4291 61.3027 32.2303C61.2839 32.1981 61.261 32.1734 61.2402 32.1541C61.2258 32.1406 61.215 32.1318 61.2051 32.1229C61.2046 32.1217 61.2046 32.1202 61.2041 32.119L61.2021 32.1151C61.166 32.0436 61.1338 31.9805 61.0977 31.909L61.0918 31.8973L61.0811 31.8885C61.077 31.885 61.0733 31.8812 61.0693 31.8777C61.0652 31.8742 61.0608 31.8706 61.0566 31.867L61.0557 31.868C61.0528 31.8661 61.0516 31.8621 61.0498 31.8611ZM61.0498 31.8611C61.0473 31.8595 61.0449 31.8592 61.0449 31.8592H61.0469C61.0476 31.8596 61.0485 31.8605 61.0498 31.8611ZM60.9863 31.9451L60.9648 31.9578C60.9666 31.9608 60.9698 31.9624 60.9717 31.9647L60.9863 31.9451Z" fill="#0A1B49" stroke="#0A1B49" stroke-width="0.133333"/>
<path d="M67.3193 33.8861C67.317 33.8871 67.3147 33.8892 67.3115 33.891V33.89L67.2764 33.9135L67.2686 33.9242C67.2224 33.9912 67.1842 34.0486 67.1387 34.1146L67.1357 34.1185L67.1377 34.1205H67.1367L67.1357 34.1195C67.135 34.1208 67.1345 34.1222 67.1338 34.1234C67.1228 34.1309 67.1108 34.1384 67.0947 34.1498C67.0716 34.1662 67.0453 34.1869 67.0225 34.2162C66.8812 34.3979 66.743 34.5854 66.6055 34.7728C65.8091 35.8603 65.0387 36.9887 64.3867 38.2875C65.0615 34.8007 66.8926 32.9063 68.3164 32.3256C67.9912 35.6073 66.2974 38.3839 64.3496 39.6517C64.3508 39.6464 64.3512 39.6405 64.3525 39.6351C64.4984 39.0385 64.734 38.4961 64.9922 37.9672C65.6109 36.7001 66.3353 35.5707 67.084 34.4701C67.1375 34.3906 67.1869 34.2965 67.2344 34.2142L67.2373 34.2123L67.2451 34.2064L67.251 34.1976C67.2933 34.1356 67.3371 34.0737 67.3809 34.0111L67.3818 34.0101C67.3841 34.0068 67.3859 34.0033 67.3877 34.0004L67.3896 33.9984H67.3887C67.3897 33.9966 67.3908 33.9949 67.3916 33.9935C67.3943 33.9888 67.3955 33.9872 67.3965 33.9857L67.3721 33.9711L67.3193 33.8861ZM67.3193 33.8861L67.3213 33.8842C67.3225 33.8837 67.3243 33.8835 67.3252 33.8832H67.3232C67.3223 33.8836 67.3209 33.8843 67.3193 33.8851V33.8861ZM67.3877 33.9965L67.3896 33.9945L67.3809 33.9877L67.3877 33.9965Z" fill="#0A1B49" stroke="#0A1B49" stroke-width="0.133333"/>
<path d="M63.4131 31.1796C63.2573 30.6398 63.0216 30.1527 62.7656 29.6786C62.1525 28.5432 61.4478 27.5373 60.7217 26.5585C60.6693 26.488 60.62 26.405 60.5742 26.332L60.5723 26.33L60.5645 26.3242L60.5586 26.3163C60.5162 26.2607 60.4739 26.205 60.4316 26.1494H60.4307L60.4287 26.1454C60.4271 26.143 60.425 26.1405 60.4238 26.1386C60.4226 26.1366 60.4218 26.1351 60.4209 26.1337C60.4193 26.1311 60.4195 26.1303 60.4199 26.1308L60.4414 26.1132L60.4863 26.0224C60.4838 26.0214 60.4814 26.0214 60.4814 26.0214H60.4834C60.4843 26.0217 60.4857 26.0219 60.4873 26.0224C60.4894 26.0231 60.4917 26.0257 60.4951 26.0273C60.5037 26.0323 60.5128 26.0377 60.5215 26.0429L60.5322 26.0488L60.54 26.0595C60.5824 26.116 60.6248 26.173 60.667 26.2294L60.6699 26.2333L60.6709 26.2353C60.6808 26.2414 60.6911 26.248 60.7061 26.2578C60.728 26.272 60.7538 26.2906 60.7764 26.3173C60.9123 26.4783 61.046 26.6442 61.1787 26.8105C61.9403 27.7651 62.6786 28.7581 63.3193 29.9062C62.5674 26.7768 60.8391 25.1272 59.5234 24.6484C59.9452 27.6264 61.5921 30.0924 63.4131 31.1806V31.1796ZM60.4404 26.1161L60.4209 26.1328C60.4232 26.1354 60.4264 26.1367 60.4287 26.1386L60.4404 26.1161Z" fill="#0A1B49" stroke="#0A1B49" stroke-width="0.133333"/>
<path d="M62.6416 24.9684C62.3655 24.4789 62.0236 24.0592 61.665 23.6569C60.8065 22.6936 59.8884 21.878 58.9561 21.0934C58.8887 21.0367 58.8212 20.9674 58.7598 20.9069L58.7578 20.9049L58.749 20.901L58.7412 20.8951L58.5791 20.7623L58.5635 20.7467L58.5801 20.7242L58.6045 20.6256L58.6123 20.6295L58.6133 20.6285C58.618 20.63 58.6232 20.6309 58.6279 20.6324L58.6543 20.6412L58.665 20.65L58.8271 20.7848L58.8301 20.7887V20.7897C58.8418 20.7936 58.8541 20.7969 58.8721 20.8033C58.8967 20.8122 58.9251 20.8246 58.9531 20.8453C59.1227 20.9706 59.2915 21.1008 59.459 21.2321V21.233C60.4196 21.9857 61.3671 22.7803 62.2549 23.7487C60.8009 20.8781 58.7389 19.6723 57.3486 19.5104C58.4461 22.3111 60.6185 24.3307 62.6416 24.9694V24.9684ZM58.5801 20.7262L58.5645 20.7477C58.5675 20.7499 58.5713 20.7502 58.5742 20.7516L58.5801 20.7262Z" fill="#0A1B49" stroke="#0A1B49" stroke-width="0.133333"/>
<path d="M64.7344 19.4227C64.733 19.4241 64.7322 19.4264 64.7305 19.4285L64.7295 19.4276C64.724 19.4357 64.7185 19.4444 64.7129 19.4529L64.7061 19.4637L64.7031 19.4764C64.6891 19.5455 64.6751 19.6151 64.6611 19.6844L64.6602 19.6883L64.6592 19.6912C64.6529 19.7009 64.6469 19.7114 64.6377 19.7264C64.6239 19.7487 64.6086 19.7765 64.5996 19.8104C64.5456 20.0138 64.4951 20.2206 64.4463 20.4276C64.1658 21.616 63.9217 22.8296 63.833 24.1414C63.1757 20.9918 64.034 18.762 65.0186 17.7664C65.9096 20.6395 65.4756 23.573 64.2939 25.3348V25.3328C64.2041 24.7783 64.2084 24.237 64.2373 23.699C64.3064 22.4104 64.5146 21.1999 64.7529 20.0047C64.77 19.9189 64.7769 19.8234 64.7871 19.7381L64.79 19.7342L64.7949 19.7254L64.7969 19.7156L64.8398 19.5106L64.8408 19.5057C64.8412 19.5028 64.8416 19.5 64.8418 19.4979C64.842 19.4958 64.8426 19.4944 64.8428 19.493V19.4891M64.7344 19.4227V19.4217M64.7344 19.4227L64.7354 19.4207C64.737 19.4191 64.7398 19.4163 64.7393 19.4168C64.7392 19.4169 64.7381 19.4171 64.7373 19.4178C64.7365 19.4185 64.7357 19.4201 64.7344 19.4217M64.7344 19.4227V19.4217M64.7344 19.4217L64.8145 19.4832L64.8428 19.4891M64.8428 19.4891L64.8418 19.4901C64.8408 19.4939 64.8384 19.4967 64.8369 19.4998L64.8154 19.4842L64.8428 19.4891Z" fill="#0A1B49" stroke="#0A1B49" stroke-width="0.133333"/>
<path d="M64.9561 32.3521C66.4953 30.8922 67.5628 28.125 67.3232 25.1265C66.1437 25.8815 64.8173 27.869 64.7676 31.0864C65.1418 29.8261 65.6467 28.6961 66.1816 27.5981L66.4658 27.0288C66.4821 26.9981 66.5022 26.9743 66.5205 26.9556C66.533 26.9427 66.5424 26.9345 66.5508 26.9263L66.5518 26.9233L66.5537 26.9204C66.5821 26.8555 66.6115 26.7904 66.6406 26.7261L66.6455 26.7144L66.6553 26.7056C66.6626 26.6987 66.6695 26.6919 66.6768 26.6851C66.6808 26.682 66.6833 26.6785 66.6855 26.6772L66.7471 26.7554L66.7744 26.7671C66.7744 26.7671 66.7737 26.7684 66.7725 26.772C66.7714 26.775 66.7691 26.7814 66.7666 26.7876L66.7656 26.7896L66.7217 26.8853C66.7071 26.917 66.6933 26.9492 66.6787 26.981L66.6738 26.9897L66.668 26.9966L66.666 26.9985C66.6369 27.0799 66.6075 27.1722 66.5723 27.2524C66.0777 28.3662 65.6095 29.5017 65.2598 30.7437C65.1136 31.2623 64.9899 31.79 64.9561 32.3511V32.3521ZM66.7715 26.7729L66.7529 26.7632L66.7656 26.7788C66.7671 26.7769 66.7701 26.7753 66.7715 26.7729Z" fill="#0A1B49" stroke="#0A1B49" stroke-width="0.133333"/>
<path d="M55.7139 15.8389C55.715 15.8397 55.716 15.8407 55.7178 15.8419C55.7194 15.8429 55.7214 15.8444 55.7236 15.8458L55.7285 15.8487L55.7295 15.8477C55.7872 15.8771 55.8446 15.9073 55.9023 15.9366L55.9111 15.9405L55.9209 15.9424L55.9229 15.9434C55.9902 15.9858 56.0647 16.0346 56.1367 16.0723C57.1393 16.5968 58.1344 17.1534 59.1055 17.8546C59.5069 18.1444 59.8957 18.4535 60.2412 18.836C58.2863 18.6564 55.9262 17.2673 54.375 14.96C55.6618 14.8333 57.7545 15.5087 59.6367 17.7921C58.6463 17.1013 57.6374 16.5753 56.625 16.0899C56.4468 16.0044 56.2677 15.9195 56.0889 15.8399C56.0588 15.8265 56.0301 15.8215 56.0059 15.8184C55.9895 15.8164 55.9781 15.8156 55.9678 15.8145L55.9668 15.8135L55.9629 15.8106C55.9049 15.7806 55.8469 15.7509 55.7891 15.7208L55.7764 15.7139L55.7627 15.713C55.7541 15.7123 55.7454 15.7118 55.7363 15.711L55.7354 15.713C55.7316 15.713 55.7287 15.7117 55.7266 15.712L55.7236 15.8116L55.7119 15.838C55.7122 15.8381 55.7129 15.8383 55.7139 15.8389ZM55.7139 15.8389L55.7236 15.8145V15.8409C55.7207 15.8402 55.7171 15.8403 55.7139 15.8389Z" fill="#0A1B49" stroke="#0A1B49" stroke-width="0.133333"/>
<path d="M61.9873 19.27C62.8044 17.4846 62.7736 14.7463 61.543 12.2524C60.7933 13.3057 60.3377 15.4574 61.3818 18.2251C61.2753 17.0226 61.3229 15.8856 61.4053 14.7661C61.4198 14.5691 61.4352 14.3719 61.4551 14.1772C61.4584 14.1444 61.4681 14.1168 61.4775 14.0942C61.4835 14.08 61.4882 14.0701 61.4922 14.061V14.0532C61.495 13.9878 61.4983 13.9224 61.501 13.8569V13.8433L61.5068 13.8315L61.5186 13.8062L61.5195 13.8071C61.521 13.8046 61.5212 13.802 61.5225 13.8003L61.6084 13.8472L61.6406 13.8491V13.8628H61.6416L61.6406 13.8687C61.6373 13.9334 61.6341 13.9984 61.6309 14.063V14.0728L61.627 14.0825C61.6301 14.1626 61.6359 14.2525 61.6328 14.3345C61.5892 15.465 61.5769 16.6053 61.7021 17.7964C61.754 18.2888 61.8273 18.7802 61.9873 19.27ZM61.5264 13.7935L61.5254 13.7954C61.5249 13.7961 61.5243 13.7971 61.5234 13.7983L61.5264 13.7935ZM61.6406 13.8501L61.6104 13.8472L61.6357 13.8618C61.6369 13.8583 61.6401 13.8545 61.6406 13.8501Z" fill="#0A1B49" stroke="#0A1B49" stroke-width="0.133333"/>
<path d="M59.0176 14.6436C58.7801 14.1864 58.4829 13.7889 58.168 13.4072C57.4056 12.4834 56.5825 11.6936 55.7451 10.9326C55.6845 10.8775 55.6242 10.8111 55.5693 10.7529L55.5605 10.748L55.5527 10.7422C55.5042 10.6992 55.4557 10.6563 55.4072 10.6133L55.4043 10.6094L55.3936 10.5986L55.4121 10.5752L55.4404 10.4795C55.4387 10.4791 55.4374 10.4786 55.4365 10.4785H55.4404C55.4423 10.4788 55.4443 10.4817 55.4473 10.4824L55.4482 10.4814C55.4526 10.483 55.4575 10.4848 55.4619 10.4863C55.4662 10.4879 55.4703 10.4897 55.4746 10.4912L55.4873 10.4951L55.4971 10.5039C55.5457 10.5477 55.5941 10.592 55.6426 10.6357L55.6455 10.6396C55.6557 10.6435 55.6666 10.6469 55.6826 10.6533C55.7054 10.6624 55.732 10.6756 55.7578 10.6963C55.9107 10.8185 56.0621 10.9456 56.2129 11.0732C57.0695 11.7985 57.9128 12.5621 58.6963 13.4805C57.4523 10.7964 55.5992 9.61388 54.3223 9.41113C55.24 12.0352 57.1716 13.9756 59.0176 14.6436ZM55.4121 10.5771L55.3945 10.5996H55.3955V10.6006C55.3982 10.6026 55.4017 10.6031 55.4043 10.6045L55.4121 10.5771Z" fill="#0A1B49" stroke="#0A1B49" stroke-width="0.133333"/>
<path d="M24.7471 57.243L24.7305 57.2509L24.6201 57.2577C24.6201 57.2554 24.621 57.2535 24.6211 57.2528C24.621 57.2537 24.6203 57.2523 24.6201 57.2538C24.62 57.2547 24.6203 57.2568 24.6201 57.2587L24.626 57.3055L24.6279 57.3182L24.6338 57.33C24.657 57.3709 24.6809 57.412 24.7041 57.453C24.7273 57.494 24.7503 57.5351 24.7734 57.576L24.7754 57.5809C24.7767 57.5829 24.778 57.5848 24.7793 57.5868C24.782 57.6047 24.785 57.6226 24.7891 57.6473C24.7945 57.6808 24.8033 57.7187 24.8223 57.7577C24.9459 58.0104 25.0768 58.2633 25.209 58.5155C25.9904 60.0056 26.8328 61.4878 27.9404 62.9296C24.385 60.2817 23.2687 57.194 23.4111 55.2968C26.8742 57.4302 29.0279 60.8197 29.3613 63.661C29.3469 63.6502 29.3321 63.6403 29.3184 63.6288V63.6278C28.7397 63.1457 28.2689 62.5939 27.8262 62.0243C26.766 60.662 25.9142 59.257 25.1074 57.8417C25.049 57.7392 24.9729 57.636 24.9072 57.5389C24.9067 57.5361 24.9068 57.5329 24.9062 57.5302L24.9043 57.5204L24.8994 57.5116C24.8768 57.4708 24.8537 57.4304 24.8311 57.3895C24.8084 57.3487 24.7863 57.3073 24.7637 57.2665L24.7607 57.2626L24.7549 57.2538L24.7529 57.2518V57.2489L24.751 57.2499V57.2479C24.7498 57.2462 24.7487 57.245 24.748 57.244L24.7471 57.243ZM24.7471 57.243C24.7481 57.2452 24.7473 57.2478 24.748 57.2499L24.7314 57.2509L24.7471 57.243Z" fill="#0A1B49" stroke="#0A1B49" stroke-width="0.133333"/>
<path d="M17.4756 63.5517C21.1064 65.384 25.1214 65.4434 27.7168 64.2392L27.667 64.2187C26.9527 63.9782 26.2361 63.8661 25.5195 63.787C24.2324 63.6452 22.9864 63.6159 21.7568 63.6328L20.5322 63.663C20.4137 63.6669 20.2844 63.6572 20.167 63.6523C20.165 63.653 20.163 63.6536 20.1611 63.6542L20.1514 63.6572H20.1416C20.0484 63.6613 19.9554 63.6657 19.8623 63.6699H19.8262C19.828 63.6699 19.8302 63.6691 19.832 63.6689L19.8301 63.6484L19.8262 63.6415L19.7734 63.5585C19.7742 63.5579 19.7768 63.5552 19.7803 63.5527C19.786 63.5485 19.796 63.5441 19.8086 63.541C19.8143 63.5384 19.8193 63.5353 19.8242 63.5331L19.8359 63.5283L19.8477 63.5273C19.9422 63.5231 20.0369 63.5206 20.1309 63.5175V63.5165L20.1357 63.5175C20.1377 63.5176 20.1396 63.5184 20.1416 63.5185C20.159 63.5113 20.176 63.5029 20.2002 63.4931C20.2157 63.4868 20.2327 63.4807 20.251 63.4755L20.3115 63.4638C20.5917 63.4366 20.8754 63.4162 21.1592 63.3964C22.8375 63.2821 24.541 63.2234 26.3486 63.412C22.2307 61.7699 19.0169 62.4365 17.4756 63.5517ZM19.8428 63.6669L19.832 63.6503L19.833 63.6689C19.8365 63.6685 19.8397 63.6679 19.8428 63.6669Z" fill="#0A1B49" stroke="#0A1B49" stroke-width="0.133333"/>
<path d="M22.6104 60.3591C22.5632 57.4985 20.7596 53.9107 17.5273 51.4412C17.196 53.3146 17.9972 56.4977 21.2695 59.488C20.3119 57.943 19.6226 56.3836 18.9941 54.823L18.6846 54.031C18.6696 53.9903 18.6652 53.9517 18.6631 53.9177C18.6615 53.8926 18.6601 53.8743 18.6592 53.8562C18.658 53.854 18.6574 53.8515 18.6562 53.8494L18.6543 53.8455C18.6164 53.7592 18.578 53.6729 18.54 53.5867L18.5352 53.574L18.5342 53.5613C18.5339 53.548 18.5335 53.5346 18.5332 53.5212C18.5335 53.5183 18.5328 53.5154 18.5332 53.5134C18.5335 53.5118 18.534 53.5105 18.5342 53.5095L18.5352 53.5076L18.5342 53.5125L18.6416 53.5173H18.6426L18.6621 53.5183C18.6616 53.5158 18.6621 53.5131 18.6611 53.5105L18.6621 53.5115C18.6626 53.5125 18.6631 53.5145 18.6641 53.5164L18.665 53.5183H18.667C18.667 53.5196 18.667 53.5209 18.667 53.5222L18.668 53.5232L18.6729 53.531L18.6748 53.5369C18.6931 53.5796 18.7121 53.622 18.7305 53.6648C18.7489 53.7077 18.7677 53.7507 18.7861 53.7937L18.79 53.8035L18.791 53.8132C18.7913 53.8158 18.7908 53.8184 18.791 53.821C18.8468 53.9244 18.912 54.0352 18.96 54.1433C19.621 55.6325 20.3285 57.1157 21.2471 58.5779C21.5827 59.1117 21.9404 59.6352 22.3779 60.1179L22.5703 60.322C22.5831 60.335 22.5968 60.3468 22.6104 60.3591Z" fill="#0A1B49" stroke="#0A1B49" stroke-width="0.133333"/>
<path d="M13.2158 59.3085C13.2166 59.3081 13.2181 59.3074 13.2197 59.3066L13.2676 59.4257L13.2617 59.4267L13.2686 59.4286L13.2695 59.4296C13.2705 59.4293 13.2715 59.429 13.2725 59.4286C13.2748 59.4291 13.2779 59.429 13.2812 59.4296L13.292 59.4316L13.5713 59.4413H13.5811L13.5918 59.4394C13.594 59.4388 13.5963 59.4381 13.5986 59.4374C13.7149 59.4524 13.8419 59.4727 13.96 59.4785L15.1826 59.5517C16.4093 59.6377 17.6483 59.771 18.9189 60.0204C19.6265 60.1598 20.3318 60.3304 21.0234 60.6298C21.0397 60.6368 21.0544 60.6464 21.0703 60.6542C18.3831 61.6367 14.3874 61.2415 10.9229 59.1122C12.5525 58.1294 15.8121 57.7345 19.7793 59.7167C17.9931 59.3767 16.2901 59.2927 14.6074 59.2656C14.323 59.2614 14.0374 59.2585 13.7559 59.2626C13.7128 59.2634 13.6751 59.2721 13.6426 59.2822C13.6187 59.2896 13.6026 59.2961 13.5859 59.3017C13.583 59.3013 13.5801 59.3001 13.5771 59.2997H13.5723L13.2891 59.2861L13.2744 59.2851L13.2607 59.291C13.2508 59.295 13.2404 59.2985 13.2275 59.3027V59.3036C13.2247 59.3051 13.2214 59.3046 13.2197 59.3056C13.2187 59.3062 13.2169 59.3078 13.2158 59.3085ZM13.2158 59.3085C13.2148 59.3092 13.2143 59.3099 13.2148 59.3095V59.3085H13.2158Z" fill="#0A1B49" stroke="#0A1B49" stroke-width="0.133333"/>
<path d="M15.9395 55.3691C16.4448 52.7263 15.4764 49.0791 12.9805 46.1826C12.3177 47.8419 12.441 50.9176 14.8613 54.293C14.2824 52.6921 13.9501 51.1294 13.6738 49.5771C13.6268 49.3134 13.5811 49.0493 13.542 48.7871C13.5359 48.746 13.5393 48.7087 13.5439 48.6768C13.5472 48.6542 13.5501 48.638 13.5527 48.6221L13.5498 48.6104C13.5315 48.5236 13.5133 48.4363 13.4951 48.3496L13.4922 48.3359L13.4951 48.3232L13.502 48.2861C13.5028 48.2836 13.5022 48.281 13.5029 48.2793L13.5039 48.2783L13.6074 48.3047L13.6289 48.3008C13.6289 48.3008 13.6296 48.3026 13.6309 48.3066C13.6312 48.3079 13.6314 48.3091 13.6318 48.3105H13.6328L13.6318 48.3125L13.6328 48.3135L13.6357 48.3223L13.6367 48.3281C13.654 48.414 13.6711 48.5 13.6885 48.5859L13.6904 48.5957L13.6895 48.6064C13.6893 48.6081 13.6887 48.6097 13.6885 48.6113C13.7198 48.7172 13.7588 48.8323 13.7822 48.9414C14.1037 50.4419 14.469 51.946 15.0332 53.4707C15.2687 54.1072 15.5331 54.7366 15.915 55.334C15.9227 55.346 15.9312 55.3575 15.9395 55.3691ZM13.5049 48.2734C13.5046 48.274 13.5056 48.2739 13.5049 48.2754L13.5039 48.2773C13.5046 48.2754 13.5047 48.2738 13.5049 48.2734ZM13.6289 48.3018L13.6084 48.3047L13.6279 48.3096C13.6279 48.3071 13.6293 48.3045 13.6289 48.3018Z" fill="#0A1B49" stroke="#0A1B49" stroke-width="0.133333"/>
<path d="M8.89258 54.3179H8.8916L8.89258 54.3189C8.89258 54.3189 8.89402 54.3185 8.89746 54.3199C8.89833 54.3202 8.89945 54.3215 8.90039 54.3218L8.90137 54.3228H8.9043C8.90673 54.3238 8.90992 54.3255 8.91309 54.3267L8.91797 54.3287C9.00248 54.3531 9.08736 54.3766 9.17188 54.4009L9.18164 54.4039H9.19629C9.29946 54.4439 9.41152 54.4907 9.51855 54.523C10.9876 54.9661 12.4563 55.4533 13.9297 56.1402C14.5449 56.4271 15.1505 56.7429 15.7148 57.1724C15.7259 57.1809 15.7355 57.1909 15.7461 57.1998C13.071 57.4865 9.51508 56.2234 6.83301 53.4996C8.54043 52.9742 11.5943 53.3489 14.7607 56.0367C13.2132 55.3294 11.6839 54.8694 10.1602 54.4673C9.90121 54.399 9.64183 54.3324 9.38379 54.272C9.34333 54.2625 9.30565 54.2622 9.27344 54.2642C9.24951 54.2657 9.23271 54.2678 9.21582 54.2691C9.21412 54.2685 9.21264 54.2668 9.21094 54.2662L9.20703 54.2642C9.11876 54.2379 9.03941 54.2153 8.95117 54.189L8.93848 54.1851L8.92578 54.1861C8.91343 54.1873 8.90054 54.1886 8.8877 54.19V54.191C8.88516 54.1916 8.88259 54.1904 8.88086 54.191C8.87904 54.1916 8.87697 54.1916 8.87598 54.192L8.875 54.1929L8.87793 54.192L8.89648 54.3004M8.89258 54.3179L8.89648 54.3004M8.89258 54.3179L8.89648 54.3004M8.89258 54.3179C8.89528 54.3186 8.89793 54.3177 8.90039 54.3179L8.89648 54.3004" fill="#0A1B49" stroke="#0A1B49" stroke-width="0.133333"/>
<path d="M10.0518 49.0295C9.91951 47.4004 10.0053 45.868 10.1396 44.3596C10.1626 44.1022 10.1869 43.8442 10.2168 43.5901C10.2215 43.5501 10.2337 43.5161 10.2461 43.4875C10.2551 43.4668 10.262 43.4522 10.2686 43.4377C10.2685 43.4361 10.2686 43.4345 10.2686 43.4329H10.2676L10.2686 43.428C10.271 43.3853 10.2729 43.3418 10.2754 43.2991C10.2778 43.2565 10.2808 43.2137 10.2832 43.1711V43.1584L10.2891 43.1458L10.3057 43.1135C10.3073 43.111 10.3074 43.1082 10.3086 43.1067C10.3092 43.1059 10.31 43.1053 10.3105 43.1047L10.3096 43.1067L10.4209 43.1692C10.4216 43.1666 10.4244 43.1644 10.4248 43.1614V43.1711H10.4258L10.4248 43.1731C10.4249 43.1755 10.4247 43.1788 10.4248 43.1819H10.4258L10.4248 43.1877C10.4192 43.2722 10.4138 43.3572 10.4082 43.4417L10.4072 43.4514L10.4043 43.4602L10.4014 43.4661C10.4039 43.5721 10.411 43.6891 10.4053 43.7961C10.3256 45.2737 10.2859 46.7652 10.4258 48.3264C10.4842 48.9782 10.5719 49.6302 10.7764 50.2825C10.7799 50.2937 10.7841 50.3047 10.7881 50.3157C11.9224 47.9849 11.9417 44.3515 10.3535 41.0295C9.32103 42.4046 8.66159 45.2886 10.0518 49.0295Z" fill="#0A1B49" stroke="#0A1B49" stroke-width="0.133333"/>
<path d="M10.5635 52.1022C10.1071 51.5933 9.59109 51.1847 9.06055 50.8015C7.78965 49.8837 6.48683 49.1556 5.17578 48.4694C5.081 48.4198 4.98426 48.3547 4.89453 48.2985C4.89237 48.2982 4.88979 48.2979 4.8877 48.2975L4.87793 48.2956L4.86914 48.2917C4.79366 48.2533 4.71814 48.2148 4.64258 48.1765L4.6377 48.1735C4.63518 48.1719 4.63189 48.1709 4.62988 48.1696L4.625 48.1647L4.61914 48.1618L4.62891 48.1403L4.62988 48.0358H4.62695L4.63086 48.0349V48.0358L4.63281 48.0349C4.63461 48.0346 4.63696 48.0359 4.63965 48.0358C4.65156 48.0369 4.66441 48.0376 4.67676 48.0388L4.68945 48.0397L4.70117 48.0456C4.73917 48.0653 4.77745 48.0854 4.81543 48.1052C4.85339 48.1249 4.89175 48.1441 4.92969 48.1638L4.93359 48.1667C4.93512 48.1676 4.93598 48.1697 4.9375 48.1706C4.95336 48.1724 4.96954 48.1726 4.99219 48.1755C5.02315 48.1794 5.05879 48.1864 5.0957 48.2028C5.32921 48.3069 5.56291 48.4172 5.7959 48.529C7.16203 49.1842 8.52282 49.8951 9.85645 50.8415C7.34953 47.7339 4.53299 46.8277 2.82324 47.0134C4.86799 50.075 8.00207 51.9141 10.585 52.1296C10.5776 52.1206 10.5713 52.1109 10.5635 52.1022ZM4.62891 48.1442L4.62109 48.1628C4.62372 48.1639 4.62647 48.1641 4.62891 48.1647V48.1442Z" fill="#0A1B49" stroke="#0A1B49" stroke-width="0.133333"/>
<path d="M7.11719 44.6653C8.64327 42.6975 9.37891 39.2874 8.5459 35.8508C7.30556 36.94 6.1184 39.5147 6.67773 43.2971C6.87716 41.7441 7.25943 40.3237 7.68359 38.9358C7.75616 38.6981 7.83075 38.4609 7.90918 38.2278C7.92169 38.1906 7.93959 38.1605 7.95703 38.136C7.96892 38.1193 7.97788 38.1074 7.98633 38.0959C7.98676 38.0937 7.98785 38.0913 7.98828 38.0891L7.98926 38.0852C8.01124 38.0043 8.0327 37.9279 8.05469 37.8469L8.05762 37.8333L8.06641 37.8235C8.06991 37.819 8.07357 37.8145 8.07715 37.8098C8.08071 37.8052 8.08421 37.7999 8.08789 37.7952V37.7961C8.09019 37.7938 8.09115 37.7907 8.09277 37.7893L8.09375 37.7883L8.17188 37.8596L8.19531 37.8665C8.19529 37.8665 8.19486 37.8675 8.19434 37.8704C8.19398 37.8723 8.19287 37.8744 8.19238 37.8772H8.19336C8.19294 37.8796 8.19206 37.8828 8.19141 37.886L8.19043 37.8909L8.12402 38.1262L8.12109 38.136L8.11523 38.1448C8.11437 38.1461 8.11321 38.1473 8.1123 38.1487C8.0937 38.2487 8.07739 38.3597 8.05078 38.4592C7.6826 39.8341 7.34885 41.2299 7.1709 42.7268C7.09659 43.352 7.0503 43.9835 7.11328 44.6379C7.11416 44.6471 7.11599 44.6562 7.11719 44.6653ZM8.17285 37.8606L8.18945 37.8743C8.1908 37.8717 8.19327 37.8696 8.19434 37.8665L8.17285 37.8606Z" fill="#0A1B49" stroke="#0A1B49" stroke-width="0.133333"/>
<path d="M6.22559 45.8558C5.91004 45.2791 5.51627 44.7833 5.10352 44.3079C4.11519 43.1696 3.05546 42.2023 1.97852 41.2718C1.90008 41.2041 1.82202 41.1217 1.75 41.0491L1.74707 41.0472L1.73828 41.0433L1.73047 41.0374C1.69927 41.0111 1.6679 40.9846 1.63672 40.9583C1.60566 40.9321 1.57503 40.9054 1.54395 40.8792H1.54297L1.52539 40.8616L1.53906 40.8441L1.56543 40.7405H1.56641C1.56847 40.7407 1.57094 40.7438 1.57422 40.7444L1.5752 40.7425C1.58604 40.7461 1.59732 40.7506 1.6084 40.7542L1.62012 40.7581L1.63086 40.7669C1.69328 40.8204 1.75602 40.8736 1.81836 40.9271L1.82129 40.931C1.82211 40.9318 1.82243 40.9331 1.82324 40.9339C1.8378 40.9391 1.85304 40.9437 1.87402 40.9515C1.90216 40.962 1.93371 40.9767 1.96484 41.0003C2.16078 41.1492 2.35605 41.3034 2.5498 41.4593C3.68088 42.3695 4.79418 43.331 5.83203 44.5042C4.1689 41.0581 1.73883 39.595 0.100586 39.3919C1.34223 42.7034 3.869 45.1109 6.2373 45.8812L6.22559 45.8558ZM1.53906 40.846L1.52637 40.8626C1.5286 40.8643 1.53104 40.8653 1.5332 40.8665L1.53906 40.846Z" fill="#0A1B49" stroke="#0A1B49" stroke-width="0.133333"/>
<path d="M7.47461 31.9461L7.41113 31.8621C7.41269 31.8611 7.41422 31.8606 7.41504 31.8602L7.41602 31.8592C7.41517 31.8596 7.41268 31.8603 7.41113 31.8611C7.40915 31.8622 7.40755 31.8657 7.4043 31.868C7.39648 31.8748 7.3885 31.8811 7.37988 31.8885L7.37012 31.8973L7.36426 31.909C7.34701 31.9432 7.32979 31.9773 7.3125 32.0115C7.29513 32.0459 7.27713 32.0806 7.25977 32.1151L7.25781 32.119C7.25715 32.1205 7.25651 32.1223 7.25586 32.1238C7.24613 32.1326 7.23582 32.1419 7.22168 32.1551C7.20099 32.1744 7.1779 32.1982 7.15918 32.2303C7.04326 32.4291 6.93069 32.6327 6.81934 32.8367C6.17371 34.0192 5.55941 35.2386 5.08496 36.6111C5.29375 33.0678 6.85694 30.9492 8.19141 30.1854C8.30282 33.481 6.99003 36.4564 5.22754 37.9705C5.22797 37.9653 5.22796 37.9601 5.22852 37.9549L5.25684 37.7274C5.33441 37.2017 5.47893 36.7051 5.6416 36.2166C6.08714 34.879 6.65629 33.6635 7.25293 32.4734C7.29611 32.3874 7.33238 32.2888 7.36816 32.201L7.37793 32.1912L7.38281 32.1824C7.41779 32.1148 7.45227 32.0469 7.4873 31.9793L7.49023 31.9734C7.49132 31.9708 7.49238 31.9677 7.49316 31.9656C7.49394 31.9636 7.49455 31.9622 7.49512 31.9608C7.49567 31.9594 7.49586 31.9583 7.49609 31.9578M7.47461 31.9461L7.49609 31.9578M7.47461 31.9461L7.49609 31.9578M7.47461 31.9461L7.48926 31.9647C7.49119 31.9624 7.49432 31.9608 7.49609 31.9578" fill="#0A1B49" stroke="#0A1B49" stroke-width="0.133333"/>
<path d="M4.10938 39.6351C3.96349 39.0384 3.72691 38.4962 3.46875 37.9672C2.85042 36.7002 2.12656 35.5707 1.37793 34.4701C1.32349 34.3901 1.27382 34.2968 1.22656 34.2142L1.22461 34.2123L1.2168 34.2064L1.21094 34.1986C1.16747 34.1364 1.12362 34.0736 1.08008 34.0111H1.0791L1.07715 34.0062C1.0756 34.0036 1.07339 34.0014 1.07227 33.9994C1.071 33.9971 1.07023 33.9951 1.06934 33.9935C1.06833 33.9918 1.06761 33.991 1.06738 33.9906L1.08789 33.975L1.13867 33.8842H1.13965C1.14138 33.8848 1.14295 33.8878 1.14551 33.889L1.14648 33.8881C1.15116 33.8911 1.15562 33.8949 1.16016 33.8978C1.16475 33.9008 1.16938 33.9037 1.17383 33.9066L1.18555 33.9135L1.19238 33.9252C1.23579 33.9887 1.27973 34.0522 1.32324 34.1156L1.32617 34.1195C1.32691 34.1208 1.32739 34.1222 1.32812 34.1234C1.339 34.1308 1.35034 34.1385 1.36621 34.1498C1.38933 34.1662 1.4156 34.1868 1.43848 34.2162C1.57963 34.3979 1.71802 34.5852 1.85547 34.7728C2.65148 35.8595 3.42064 36.987 4.07227 38.2845C3.39679 34.799 1.56745 32.9056 0.143555 32.3256C0.468563 35.6071 2.16402 38.3837 4.11133 39.6517C4.11017 39.6465 4.11067 39.6404 4.10938 39.6351ZM1.08691 33.9769L1.06836 33.9916C1.07036 33.9941 1.07314 33.9956 1.0752 33.9974L1.08691 33.9769Z" fill="#0A1B49" stroke="#0A1B49" stroke-width="0.133333"/>
<path d="M5.04688 31.1806C6.86799 30.0926 8.51464 27.6267 8.93652 24.6484C7.62092 25.1276 5.8923 26.7772 5.14062 29.9062C5.7814 28.7579 6.52066 27.7653 7.28223 26.8105C7.41492 26.6441 7.54856 26.4783 7.68457 26.3173C7.70702 26.2908 7.73198 26.272 7.75391 26.2578C7.76907 26.2479 7.78005 26.2415 7.79004 26.2353L7.79102 26.2333L7.79395 26.2294C7.81503 26.2012 7.83633 26.1727 7.85742 26.1445C7.87845 26.1163 7.89888 26.0877 7.91992 26.0595L7.92871 26.0488L7.93945 26.0419C7.94352 26.0395 7.94802 26.0375 7.95215 26.0351L7.96582 26.0273C7.96914 26.0258 7.97155 26.0231 7.97363 26.0224C7.97521 26.0219 7.97671 26.0217 7.97754 26.0214H7.97852C7.97776 26.0217 7.97624 26.0217 7.97461 26.0224L8.01855 26.1132L8.04102 26.1308C8.0413 26.1304 8.04069 26.1311 8.03906 26.1337C8.03822 26.1351 8.03735 26.1366 8.03613 26.1386C8.03503 26.1404 8.03375 26.1431 8.03223 26.1454L8.0293 26.1494L7.96582 26.2324C7.94466 26.2602 7.92349 26.2885 7.90234 26.3163L7.89648 26.3242L7.88867 26.33L7.88574 26.332C7.83997 26.4049 7.79147 26.4881 7.73926 26.5585C7.01299 27.5373 6.30834 28.5432 5.69531 29.6786C5.43931 30.1528 5.20354 30.6398 5.04785 31.1796L5.04688 31.1806ZM8.04004 26.1328L8.02051 26.1161L8.03125 26.1386C8.03378 26.1366 8.03753 26.1356 8.04004 26.1328Z" fill="#0A1B49" stroke="#0A1B49" stroke-width="0.133333"/>
<path d="M5.81738 24.9694C7.84061 24.331 10.0127 22.3114 11.1104 19.5104C9.71999 19.6727 7.65781 20.8785 6.2041 23.7487C7.09205 22.7801 8.04022 21.9858 9.00098 21.233V21.2321C9.16848 21.1008 9.33735 20.9706 9.50684 20.8453C9.53481 20.8247 9.56327 20.8122 9.58789 20.8033C9.60442 20.7974 9.6161 20.7943 9.62695 20.7906L9.63281 20.7848C9.68679 20.7397 9.74101 20.6951 9.79492 20.65L9.80566 20.6412L9.83203 20.6324L9.84668 20.6285C9.84995 20.6279 9.8524 20.6258 9.85449 20.6256H9.85547L9.87891 20.7252L9.89648 20.7467L9.88086 20.7623L9.71875 20.8951L9.71094 20.901L9.70117 20.9049L9.69922 20.9059C9.63777 20.9664 9.57113 21.0358 9.50391 21.0924V21.0934C8.57145 21.878 7.65343 22.6936 6.79492 23.6569C6.48122 24.0088 6.18009 24.3741 5.9248 24.7877L5.81836 24.9684L5.81738 24.9694ZM9.89551 20.7477L9.87891 20.7272L9.88477 20.7516C9.8879 20.7501 9.89217 20.7501 9.89551 20.7477Z" fill="#0A1B49" stroke="#0A1B49" stroke-width="0.133333"/>
<path d="M4.16699 25.3328C4.25687 24.7783 4.2524 24.237 4.22363 23.699C4.15448 22.4105 3.9473 21.1999 3.70898 20.0047C3.69173 19.9182 3.68307 19.822 3.67285 19.7361L3.67188 19.7342L3.66699 19.7254L3.66406 19.7156C3.64961 19.6474 3.63554 19.5787 3.62109 19.5106L3.62012 19.5057C3.61975 19.5028 3.61936 19.5 3.61914 19.4979C3.61893 19.4958 3.6193 19.4944 3.61914 19.493C3.61899 19.4917 3.61824 19.4905 3.61816 19.4901C3.61914 19.4938 3.62166 19.4969 3.62305 19.4998L3.72656 19.4217C3.72544 19.4204 3.72434 19.4195 3.72363 19.4188L3.72266 19.4168C3.72328 19.4174 3.72533 19.4195 3.72656 19.4207C3.72812 19.4222 3.72826 19.4259 3.73047 19.4285L3.73145 19.4276C3.73433 19.4318 3.73748 19.4361 3.74023 19.4402C3.743 19.4444 3.74536 19.449 3.74805 19.4529L3.75586 19.4637L3.75781 19.4764C3.77187 19.5454 3.78577 19.6154 3.7998 19.6844H3.80078V19.6912C3.8071 19.701 3.81387 19.7112 3.82324 19.7264C3.83696 19.7486 3.85234 19.7758 3.86133 19.8094C3.91553 20.013 3.96576 20.2204 4.01465 20.4276C4.29508 21.616 4.53837 22.8296 4.62695 24.1414C5.2844 20.991 4.42614 18.7617 3.44141 17.7664C2.55036 20.6387 2.98505 23.572 4.16602 25.3338L4.16699 25.3328Z" fill="#0A1B49" stroke="#0A1B49" stroke-width="0.133333"/>
<path d="M3.50781 32.3511C3.47385 31.79 3.35036 31.2623 3.2041 30.7437C2.85403 29.5017 2.38632 28.3662 1.8916 27.2524C1.85594 27.1722 1.82653 27.0807 1.79785 26.9995C1.79715 26.9987 1.79658 26.9973 1.7959 26.9966L1.78906 26.9897L1.78516 26.98C1.75621 26.9167 1.72636 26.8539 1.69727 26.7905L1.69531 26.7847C1.69445 26.7822 1.69398 26.7797 1.69336 26.7778C1.69271 26.7759 1.69185 26.7742 1.69141 26.7729C1.6908 26.7712 1.69048 26.7702 1.69043 26.77L1.69824 26.7788L1.78027 26.6792C1.77819 26.6777 1.77592 26.6766 1.77539 26.6763H1.77637C1.7771 26.6767 1.77886 26.6774 1.78027 26.6782C1.78206 26.6793 1.78336 26.683 1.78613 26.6851L1.78711 26.6841C1.79431 26.6909 1.80126 26.6986 1.80859 26.7056L1.81836 26.7144L1.82422 26.7261C1.85423 26.793 1.88012 26.8524 1.91016 26.9194L1.91211 26.9243V26.9263C1.92051 26.9345 1.92978 26.9427 1.94238 26.9556C1.96072 26.9743 1.98187 26.9978 1.99805 27.0288C2.09552 27.2156 2.18916 27.4068 2.28223 27.5981C2.81672 28.6963 3.32108 29.8268 3.69531 31.0874C3.6458 27.8688 2.3189 25.8812 1.13965 25.1265C0.900054 28.125 1.96851 30.8922 3.50781 32.3521V32.3511Z" fill="#0A1B49" stroke="#0A1B49" stroke-width="0.133333"/>
<path d="M12.7461 15.8389C12.747 15.8384 12.7477 15.8382 12.748 15.838L12.7354 15.8116L12.7324 15.712C12.7304 15.7117 12.7278 15.713 12.7246 15.713V15.711L12.6836 15.7139L12.6719 15.7208C12.6138 15.751 12.5552 15.7805 12.4971 15.8106L12.4932 15.8135L12.4912 15.8145C12.4811 15.8155 12.4699 15.8164 12.4541 15.8184C12.4299 15.8215 12.4011 15.8265 12.3711 15.8399C12.1921 15.9195 12.0132 16.0044 11.835 16.0899C10.8228 16.5752 9.81351 17.1005 8.82324 17.7911C10.7049 15.5087 12.7972 14.8338 14.084 14.96C12.5326 17.2674 10.1729 18.6568 8.21777 18.836C8.56326 18.4532 8.95279 18.1446 9.35449 17.8546C10.3256 17.1534 11.3207 16.5968 12.3232 16.0723C12.395 16.0348 12.4689 15.9857 12.5361 15.9434L12.5391 15.9424L12.5488 15.9405L12.5576 15.9366L12.7305 15.8477L12.7354 15.8458C12.7377 15.8443 12.7405 15.8429 12.7422 15.8419C12.7439 15.8408 12.7449 15.8397 12.7461 15.8389ZM12.7461 15.8389L12.7354 15.8145V15.8409C12.7386 15.8402 12.7425 15.8405 12.7461 15.8389Z" fill="#0A1B49" stroke="#0A1B49" stroke-width="0.133333"/>
<path d="M6.82227 13.8491V13.856C6.82215 13.858 6.82137 13.8609 6.82129 13.8638V13.8687C6.82458 13.9326 6.82873 13.999 6.83203 14.063V14.0737L6.83594 14.0854C6.83273 14.1648 6.82695 14.2535 6.83008 14.3345C6.87359 15.465 6.88601 16.6053 6.76074 17.7964C6.70892 18.2889 6.63475 18.7801 6.47461 19.27C5.65769 17.4849 5.68885 14.7468 6.91895 12.2534C7.6686 13.307 8.12378 15.458 7.0791 18.2261C7.18581 17.0232 7.13998 15.8859 7.05762 14.7661C7.04313 14.5691 7.0277 14.3719 7.00781 14.1772C7.00447 14.1444 6.99475 14.1168 6.98535 14.0942C6.97882 14.0786 6.97406 14.0679 6.96973 14.0581L6.9707 14.0532H6.96973C6.96702 13.9878 6.96473 13.9224 6.96191 13.8569L6.96094 13.8442L6.95605 13.8325C6.95404 13.8281 6.95214 13.823 6.9502 13.8188C6.9483 13.8148 6.94611 13.811 6.94434 13.8071L6.94238 13.8081C6.94072 13.8052 6.94078 13.8021 6.93945 13.8003M6.82227 13.8491L6.85156 13.8472M6.82227 13.8491L6.85156 13.8472M6.82227 13.8491V13.8501M6.85156 13.8472L6.93945 13.8003M6.85156 13.8472L6.85059 13.8481M6.93945 13.8003L6.94043 13.7993C6.93945 13.7978 6.93809 13.7962 6.9375 13.7954L6.93652 13.7944L6.93945 13.7983V13.8003ZM6.85059 13.8481L6.82227 13.8501M6.85059 13.8481L6.82227 13.8501M6.85059 13.8481L6.82617 13.8608C6.82514 13.8575 6.82271 13.8542 6.82227 13.8501" fill="#0A1B49" stroke="#0A1B49" stroke-width="0.133333"/>
<path d="M9.44238 14.6436C11.2887 13.976 13.2208 12.0357 14.1387 9.41113C12.8617 9.61407 11.0075 10.7962 9.76367 13.4805C10.5474 12.5618 11.3912 11.7987 12.248 11.0732C12.3987 10.9456 12.5504 10.8185 12.7031 10.6963H12.7041C12.7299 10.6757 12.7565 10.6624 12.7793 10.6533C12.7944 10.6473 12.8047 10.6433 12.8145 10.6396V10.6387L12.8184 10.6357C12.867 10.5919 12.9153 10.5478 12.9639 10.5039L12.9736 10.4951L12.9863 10.4912C12.9908 10.4896 12.9956 10.4879 13 10.4863C13.0042 10.4848 13.0086 10.4839 13.0127 10.4824C13.0164 10.4815 13.0193 10.4788 13.0215 10.4785V10.4795L13.0479 10.5762L13.0674 10.5986L13.0625 10.6035C13.0612 10.605 13.0595 10.6074 13.0576 10.6094L13.0537 10.6123L12.9082 10.7422L12.9014 10.748L12.8896 10.7539C12.8353 10.8117 12.7767 10.8781 12.7168 10.9326H12.7158C11.8784 11.6935 11.0564 12.4834 10.2939 13.4072C9.97876 13.7891 9.67994 14.186 9.44238 14.6436ZM13.0664 10.5996L13.0488 10.5781L13.0557 10.6045C13.0589 10.6029 13.063 10.6023 13.0664 10.5996Z" fill="#0A1B49" stroke="#0A1B49" stroke-width="0.133333"/>
<path d="M45.3926 2.25995L45.3896 2.22577L45.416 2.20331L46.29 1.46307L45.1689 1.23358L45.1357 1.22675L45.1221 1.1955L44.6436 0.148621L44.0986 1.1369L44.082 1.1662L44.0498 1.17108H44.0459C44.0435 1.17142 44.0398 1.17237 44.0352 1.17303C44.0259 1.17437 44.0124 1.17634 43.9951 1.17889C43.9604 1.18404 43.9101 1.19091 43.8506 1.20038C43.7315 1.21931 43.5735 1.24654 43.416 1.27753H43.415C43.2571 1.30776 43.0988 1.33741 42.9805 1.35956C42.9566 1.36402 42.9344 1.36846 42.9141 1.37225L43.7363 2.12714L43.7627 2.15057L43.7568 2.18573L43.585 3.30096C43.5971 3.29336 43.6096 3.28487 43.623 3.27655C43.7208 3.2161 43.8527 3.13878 43.9863 3.06952L43.9883 3.06854C44.1219 3.00249 44.2552 2.93575 44.3555 2.88593C44.4055 2.86104 44.4473 2.83994 44.4766 2.82538C44.4911 2.81813 44.5029 2.81268 44.5107 2.80878C44.5144 2.80697 44.5175 2.80587 44.5195 2.80487C44.5205 2.80437 44.5219 2.80317 44.5225 2.80292H44.5234L44.5566 2.78632L44.5889 2.80682L45.4902 3.38593L45.3926 2.25995Z" fill="#0A1B49" stroke="#0A1B49" stroke-width="0.133333"/>
<path d="M51.9688 6.02209L51.9658 5.98792L51.9922 5.96545L52.8662 5.22522L51.7451 4.99573L51.7119 4.98889L51.6982 4.95862L51.2197 3.90979L50.6748 4.89905L50.6582 4.92834L50.625 4.93323H50.6221C50.6197 4.93357 50.616 4.93451 50.6113 4.93518C50.6021 4.93651 50.5885 4.93848 50.5713 4.94104C50.5365 4.94619 50.4863 4.95306 50.4268 4.96252C50.3077 4.98145 50.1496 5.00868 49.9922 5.03967H49.9912C49.8332 5.06991 49.675 5.09956 49.5566 5.1217C49.5328 5.12617 49.5106 5.13061 49.4902 5.1344L50.3125 5.88928L50.3389 5.91272L50.333 5.94788L50.1611 7.06311C50.1733 7.05552 50.1858 7.047 50.1992 7.0387C50.297 6.97838 50.4288 6.90084 50.5625 6.83167L50.5635 6.83069C50.6973 6.76414 50.8313 6.69798 50.9316 6.64807C50.9817 6.62318 51.0235 6.60208 51.0527 6.58752C51.0673 6.5803 51.0791 6.57482 51.0869 6.57092C51.0907 6.56902 51.0937 6.56705 51.0957 6.56604L51.0986 6.56506L51.1328 6.54749L51.165 6.56799L52.0664 7.14807L51.9688 6.02209Z" fill="#0A1B49" stroke="#0A1B49" stroke-width="0.133333"/>
<path d="M23.873 2.80682L23.9053 2.78632L23.9385 2.80292H23.9395L23.9414 2.80487C23.9434 2.80588 23.9473 2.80683 23.9512 2.80878C23.9589 2.81263 23.9701 2.81828 23.9844 2.82538C24.0136 2.83995 24.0563 2.86099 24.1064 2.88593C24.2067 2.93576 24.34 3.0025 24.4736 3.06854L24.4746 3.06952C24.6082 3.13874 24.7401 3.21607 24.8379 3.27655C24.8512 3.28477 24.864 3.29345 24.876 3.30096L24.7051 2.18573L24.6992 2.15057L24.7256 2.12714L25.5469 1.37225C25.5266 1.36847 25.5042 1.364 25.4805 1.35956C25.3622 1.33743 25.2047 1.30772 25.0469 1.27753H25.0459C24.8883 1.24649 24.7295 1.21932 24.6104 1.20038C24.551 1.19095 24.5015 1.18403 24.4668 1.17889C24.4496 1.17634 24.436 1.17437 24.4268 1.17303C24.4221 1.17237 24.4184 1.17142 24.416 1.17108H24.4121L24.3799 1.1662L24.3633 1.1369L23.8174 0.148621L23.3398 1.1955L23.3252 1.22675L23.292 1.23358L22.1709 1.4621L23.0459 2.20331L23.0723 2.22577L23.0693 2.25995L22.9707 3.38495L23.873 2.80682Z" fill="#0A1B49" stroke="#0A1B49" stroke-width="0.133333"/>
<path d="M17.2969 6.56799L17.3291 6.54749L17.3623 6.56506H17.3633L17.3652 6.56604C17.3672 6.56702 17.3703 6.56905 17.374 6.57092C17.3818 6.5748 17.3937 6.58031 17.4082 6.58752C17.4374 6.60205 17.4793 6.62319 17.5293 6.64807C17.6296 6.69793 17.7637 6.76417 17.8975 6.83069L17.8984 6.83167C18.0321 6.90081 18.1639 6.97836 18.2617 7.0387C18.2751 7.04694 18.2878 7.05557 18.2998 7.06311L18.1289 5.94788L18.123 5.91272L18.1494 5.88928L18.9707 5.1344C18.9504 5.13062 18.928 5.12615 18.9043 5.1217C18.786 5.09958 18.6284 5.06987 18.4707 5.03967H18.4697C18.3121 5.00864 18.1533 4.98146 18.0342 4.96252C17.9749 4.9531 17.9253 4.94618 17.8906 4.94104C17.8735 4.9385 17.8599 4.93652 17.8506 4.93518C17.846 4.93452 17.8422 4.93357 17.8398 4.93323H17.8359L17.8027 4.92834L17.7871 4.89905L17.2412 3.90979L16.7637 4.95862L16.749 4.98889L16.7158 4.99573L15.5947 5.22522L16.4697 5.96545L16.4961 5.98792L16.4932 6.02209L16.3945 7.14709L17.2969 6.56799Z" fill="#0A1B49" stroke="#0A1B49" stroke-width="0.133333"/>
</svg>
